<?xml version="1.0" standalone="yes"?>
<svg xmlns="http://www.w3.org/2000/svg" width="333" height="376">
<path style="fill:#010101; stroke:none;" d="M0 0L0 376L333 376L333 0L0 0z"/>
<path style="fill:#e6d8e2; stroke:none;" d="M127 30L127 31L132 31L127 30M123.667 31.3333L124.333 31.6667L123.667 31.3333z"/>
<path style="fill:#a283ef; stroke:none;" d="M125 31L126 32L125 31z"/>
<path style="fill:#8b2fff; stroke:none;" d="M126 31L127 32L126 31z"/>
<path style="fill:#6016ff; stroke:none;" d="M160 151C139.424 152.794 124.306 167.084 105 170.688C88.4532 173.777 73.8052 164.674 57 169.155C46.6374 171.918 32.9248 176.597 31.3688 189C28.968 208.138 60.3796 214.448 71.8665 222.352C83.4341 230.311 76.814 254.658 97 253.956C99.7617 253.86 102.413 253.246 105 252.289C108.372 251.042 111.16 249.159 114 247C106.418 266.689 116.399 281.742 134 291.56C138.008 293.796 145.323 293.623 148.411 296.603C151.227 299.32 150.715 304.61 152.453 308C156.442 315.78 165.554 319.784 174 319.946C180.108 320.063 186.527 317.408 190.671 312.895C194.18 309.074 198.92 300.19 205.714 303.202C214.121 306.93 216.943 325.439 221.453 333C234.815 355.4 275.642 377.462 297.535 352.907C314.858 333.478 308.323 299.257 304.414 276C299.501 246.772 289.895 218.24 272.573 194C263.282 180.999 251.358 170.454 241.45 158C233.07 147.466 228.987 134.404 220.532 124C209.899 110.915 195.097 101.583 183.001 89.9606C170.527 77.9752 160.733 62.7906 150.373 49C145.615 42.666 140.281 33.5388 132 31.5725C125.573 30.0464 118.602 34.0483 114.015 38.1852C95.2923 55.0707 110.388 81.7232 120.605 99C131.586 117.569 150.196 132.078 160 151z"/>
<path style="fill:#8b2fff; stroke:none;" d="M132 31L133 32L132 31z"/>
<path style="fill:#e6d8e2; stroke:none;" d="M133.667 31.3333L134.333 31.6667L133.667 31.3333M121 32L122 33L121 32z"/>
<path style="fill:#a283ef; stroke:none;" d="M122 32L123 33L122 32M135 32L136 33L135 32z"/>
<path style="fill:#e6d8e2; stroke:none;" d="M119 33L120 34L119 33z"/>
<path style="fill:#a283ef; stroke:none;" d="M120 33L121 34L120 33z"/>
<path style="fill:#8b2fff; stroke:none;" d="M136 33L137 34L136 33z"/>
<path style="fill:#e6d8e2; stroke:none;" d="M137 33L138 34L137 33M117 34L116 36L117 34z"/>
<path style="fill:#a283ef; stroke:none;" d="M118 34L119 35L118 34z"/>
<path style="fill:#e6d8e2; stroke:none;" d="M138 34L139 35L138 34z"/>
<path style="fill:#a283ef; stroke:none;" d="M117 35L118 36L117 35M139 35L140 36L139 35M115 36L116 37L115 36M140 36L141 37L140 36M114 37L115 38L114 37M141 37L142 38L141 37z"/>
<path style="fill:#e6d8e2; stroke:none;" d="M112 38L109 42L112 38z"/>
<path style="fill:#a283ef; stroke:none;" d="M113 38L114 39L113 38M142 38L143 39L142 38z"/>
<path style="fill:#8b2fff; stroke:none;" d="M112 39L113 40L112 39z"/>
<path style="fill:#e6d8e2; stroke:none;" d="M143 39L144 40L143 39z"/>
<path style="fill:#8b2fff; stroke:none;" d="M111 40L112 41L111 40M128.709 41.0864C126.709 42.448 126.475 45.7946 125.146 47.7145C121.969 52.3049 113.988 56.2776 115.362 62.9414C116.408 68.0177 133.146 67.6213 136.486 65.0463C141.987 60.8059 136.825 50.6383 134.614 46.0046C133.671 44.0283 131.806 38.9789 128.709 41.0864M143 40L144 41L143 40M110 41L111 42L110 41z"/>
<path style="fill:#a283ef; stroke:none;" d="M144 41L145 42L144 41M109 42L110 43L109 42M145 42L146 43L145 42z"/>
<path style="fill:#e6d8e2; stroke:none;" d="M108 43L109 44L108 43z"/>
<path style="fill:#a283ef; stroke:none;" d="M146 43L147 44L146 43z"/>
<path style="fill:#8b2fff; stroke:none;" d="M108 44L109 45L108 44z"/>
<path style="fill:#e6d8e2; stroke:none;" d="M107 45L108 46L107 45z"/>
<path style="fill:#a283ef; stroke:none;" d="M147 45L148 46L147 45z"/>
<path style="fill:#8b2fff; stroke:none;" d="M107 46L108 47L107 46z"/>
<path style="fill:#a283ef; stroke:none;" d="M148 46L149 47L148 46z"/>
<path style="fill:#e6d8e2; stroke:none;" d="M106 47L107 48L106 47z"/>
<path style="fill:#a283ef; stroke:none;" d="M149 47L150 48L149 47z"/>
<path style="fill:#8b2fff; stroke:none;" d="M106 48L107 49L106 48z"/>
<path style="fill:#e6d8e2; stroke:none;" d="M105.333 49.6667L105.667 50.3333L105.333 49.6667z"/>
<path style="fill:#a283ef; stroke:none;" d="M150 49L151 50L150 49M151 50L152 51L151 50z"/>
<path style="fill:#8b2fff; stroke:none;" d="M105.333 51.6667L105.667 52.3333L105.333 51.6667z"/>
<path style="fill:#a283ef; stroke:none;" d="M152 51L153 52L152 51z"/>
<path style="fill:#e6d8e2; stroke:none;" d="M104 53L104 56L105 56L104 53z"/>
<path style="fill:#a283ef; stroke:none;" d="M153 53L154 54L153 53M154 54L155 55L154 54M155 55L156 56L155 55M104.333 56.6667L104.667 57.3333L104.333 56.6667z"/>
<path style="fill:#e6d8e2; stroke:none;" d="M156 56L157 57L156 56z"/>
<path style="fill:#a283ef; stroke:none;" d="M156 57L157 58L156 57z"/>
<path style="fill:#8b2fff; stroke:none;" d="M104 58L104 61L105 61L104 58z"/>
<path style="fill:#a283ef; stroke:none;" d="M157 58L158 59L157 58z"/>
<path style="fill:#e6d8e2; stroke:none;" d="M158 59L159 60L158 59z"/>
<path style="fill:#a283ef; stroke:none;" d="M104 61L104 64L105 64L104 61M159 61L160 62L159 61M160 62L161 63L160 62z"/>
<path style="fill:#e6d8e2; stroke:none;" d="M161 63L162 64L161 63M104 64L105 65L104 64M162 64L163 65L162 64z"/>
<path style="fill:#a283ef; stroke:none;" d="M162 65L163 66L162 65z"/>
<path style="fill:#8b2fff; stroke:none;" d="M105 66L106 67L105 66z"/>
<path style="fill:#a283ef; stroke:none;" d="M163 66L164 67L163 66M105.333 67.6667L105.667 68.3333L105.333 67.6667M164 67L165 68L164 67z"/>
<path style="fill:#e6d8e2; stroke:none;" d="M165 68L166 69L165 68M105 69L106 70L105 69z"/>
<path style="fill:#8b2fff; stroke:none;" d="M165 69L166 70L165 69z"/>
<path style="fill:#a283ef; stroke:none;" d="M106 70L107 71L106 70M166 70L167 71L166 70z"/>
<path style="fill:#e6d8e2; stroke:none;" d="M106 71L107 72L106 71z"/>
<path style="fill:#a283ef; stroke:none;" d="M167 71L168 72L167 71M107 72L108 73L107 72z"/>
<path style="fill:#e6d8e2; stroke:none;" d="M168 72L169 73L168 72M107 73L108 74L107 73z"/>
<path style="fill:#a283ef; stroke:none;" d="M108 74L109 75L108 74M169 74L170 75L169 74M170 75L171 76L170 75M109 76L110 77L109 76M171 76L172 77L171 76z"/>
<path style="fill:#e6d8e2; stroke:none;" d="M109 77L110 78L109 77M172 77L173 78L172 77z"/>
<path style="fill:#a283ef; stroke:none;" d="M110 78L111 79L110 78z"/>
<path style="fill:#8b2fff; stroke:none;" d="M172 78L173 79L172 78z"/>
<path style="fill:#a283ef; stroke:none;" d="M173 79L174 80L173 79M111 80L112 81L111 80M174 80L175 81L174 80M112 81L113 82L112 81z"/>
<path style="fill:#e6d8e2; stroke:none;" d="M175 81L176 82L175 81M112 82L113 83L112 82M176 82L177 83L176 82z"/>
<path style="fill:#a283ef; stroke:none;" d="M113 83L114 84L113 83z"/>
<path style="fill:#8b2fff; stroke:none;" d="M176 83L177 84L176 83z"/>
<path style="fill:#e6d8e2; stroke:none;" d="M113 84L114 85L113 84z"/>
<path style="fill:#a283ef; stroke:none;" d="M177 84L178 85L177 84z"/>
<path style="fill:#8b2fff; stroke:none;" d="M114 85L115 86L114 85z"/>
<path style="fill:#a283ef; stroke:none;" d="M178 85L179 86L178 85M114 86L115 87L114 86M179 86L180 87L179 86z"/>
<path style="fill:#e6d8e2; stroke:none;" d="M114 87L115 88L114 87M180 87L181 88L180 87z"/>
<path style="fill:#a283ef; stroke:none;" d="M115.333 88.6667L115.667 89.3333L115.333 88.6667z"/>
<path style="fill:#e6d8e2; stroke:none;" d="M181 88L182 89L181 88M182 89L183 90L182 89M115 90L116 91L115 90z"/>
<path style="fill:#8b2fff; stroke:none;" d="M116 90L117 91L116 90z"/>
<path style="fill:#a283ef; stroke:none;" d="M183 90L184 91L183 90M116 91L117 92L116 91M184 91L185 92L184 91z"/>
<path style="fill:#e6d8e2; stroke:none;" d="M116 92L117 93L116 92z"/>
<path style="fill:#8b2fff; stroke:none;" d="M185 92L187 94L185 92z"/>
<path style="fill:#e6d8e2; stroke:none;" d="M186 92L187 93L186 92z"/>
<path style="fill:#a283ef; stroke:none;" d="M117 93L118 94L117 93z"/>
<path style="fill:#e6d8e2; stroke:none;" d="M187 93L188 94L187 93M117 94L118 95L117 94M188 94L189 95L188 94z"/>
<path style="fill:#a283ef; stroke:none;" d="M118 95L119 96L118 95M189 95L190 96L189 95z"/>
<path style="fill:#e6d8e2; stroke:none;" d="M118 96L119 97L118 96z"/>
<path style="fill:#a283ef; stroke:none;" d="M190 96L191 97L190 96M119 97L120 98L119 97M191 97L192 98L191 97M120.333 98.6667L120.667 99.3333L120.333 98.6667z"/>
<path style="fill:#8b2fff; stroke:none;" d="M192 98L194 100L192 98z"/>
<path style="fill:#e6d8e2; stroke:none;" d="M193 98L194 99L193 98M194 99L195 100L194 99z"/>
<path style="fill:#a283ef; stroke:none;" d="M121 100L122 101L121 100z"/>
<path style="fill:#e6d8e2; stroke:none;" d="M195 100L196 101L195 100M121 101L122 102L121 101z"/>
<path style="fill:#a283ef; stroke:none;" d="M196 101L197 102L196 101M122 102L123 103L122 102M197 102L198 103L197 102z"/>
<path style="fill:#8b2fff; stroke:none;" d="M123 103L124 104L123 103z"/>
<path style="fill:#a283ef; stroke:none;" d="M198 103L199 104L198 103z"/>
<path style="fill:#e6d8e2; stroke:none;" d="M123 104L124 105L123 104z"/>
<path style="fill:#8b2fff; stroke:none;" d="M199 104L201 106L199 104z"/>
<path style="fill:#e6d8e2; stroke:none;" d="M200 104L201 105L200 104z"/>
<path style="fill:#a283ef; stroke:none;" d="M124 105L125 106L124 105z"/>
<path style="fill:#e6d8e2; stroke:none;" d="M201 105L202 106L201 105z"/>
<path style="fill:#8b2fff; stroke:none;" d="M125 106L126 107L125 106z"/>
<path style="fill:#e6d8e2; stroke:none;" d="M202 106L203 107L202 106M125 107L126 108L125 107M203 107L204 108L203 107z"/>
<path style="fill:#a283ef; stroke:none;" d="M126 108L127 109L126 108M204 108L205 109L204 108M127 109L128 110L127 109M205 109L206 110L205 109z"/>
<path style="fill:#e6d8e2; stroke:none;" d="M127 110L128 111L127 110z"/>
<path style="fill:#a283ef; stroke:none;" d="M206 110L207 111L206 110M128 111L129 112L128 111z"/>
<path style="fill:#8b2fff; stroke:none;" d="M207 111L209 113L207 111z"/>
<path style="fill:#e6d8e2; stroke:none;" d="M208 111L209 112L208 111z"/>
<path style="fill:#a283ef; stroke:none;" d="M129 112L130 113L129 112z"/>
<path style="fill:#e6d8e2; stroke:none;" d="M209 112L210 113L209 112z"/>
<path style="fill:#a283ef; stroke:none;" d="M130 113L131 114L130 113z"/>
<path style="fill:#e6d8e2; stroke:none;" d="M210 113L211 114L210 113M130 114L131 115L130 114z"/>
<path style="fill:#a283ef; stroke:none;" d="M211 114L212 115L211 114z"/>
<path style="fill:#e6d8e2; stroke:none;" d="M131 115L132 116L131 115z"/>
<path style="fill:#a283ef; stroke:none;" d="M212 115L213 116L212 115M132 116L133 117L132 116M213 116L214 117L213 116M133 117L134 118L133 117z"/>
<path style="fill:#8b2fff; stroke:none;" d="M214 117L217 120L214 117z"/>
<path style="fill:#e6d8e2; stroke:none;" d="M215 117L216 118L215 117z"/>
<path style="fill:#a283ef; stroke:none;" d="M134 118L135 119L134 118z"/>
<path style="fill:#e6d8e2; stroke:none;" d="M216 118L217 119L216 118z"/>
<path style="fill:#a283ef; stroke:none;" d="M135 119L136 120L135 119M136 120L137 121L136 120M217 120L218 121L217 120M137 121L138 122L137 121M218 121L219 122L218 121z"/>
<path style="fill:#e6d8e2; stroke:none;" d="M137 122L138 123L137 122z"/>
<path style="fill:#a283ef; stroke:none;" d="M219 122L220 123L219 122M138 123L139 124L138 123M220 123L221 124L220 123M139 124L140 125L139 124z"/>
<path style="fill:#e6d8e2; stroke:none;" d="M221 124L222 125L221 124M139 125L140 126L139 125z"/>
<path style="fill:#8b2fff; stroke:none;" d="M221 125L222 126L221 125z"/>
<path style="fill:#a283ef; stroke:none;" d="M140 126L141 127L140 126M222 126L223 127L222 126M141 127L142 128L141 127M223 127L224 128L223 127M142 128L143 129L142 128z"/>
<path style="fill:#e6d8e2; stroke:none;" d="M224 128L225 129L224 128z"/>
<path style="fill:#a283ef; stroke:none;" d="M224 129L225 130L224 129z"/>
<path style="fill:#e6d8e2; stroke:none;" d="M143 130L144 131L143 130z"/>
<path style="fill:#8b2fff; stroke:none;" d="M189 150L210 141C207.381 136.133 196.665 123.484 191.368 133.148C188.783 137.864 190.238 144.8 189 150z"/>
<path style="fill:#a283ef; stroke:none;" d="M225.333 130.667L225.667 131.333L225.333 130.667M144 131L145 132L144 131M145 132L146 133L145 132M226 132L227 133L226 132M146 133L147 134L146 133z"/>
<path style="fill:#e6d8e2; stroke:none;" d="M227 133L228 134L227 133z"/>
<path style="fill:#8b2fff; stroke:none;" d="M147 134L148 135L147 134z"/>
<path style="fill:#a283ef; stroke:none;" d="M227 134L228 135L227 134z"/>
<path style="fill:#e6d8e2; stroke:none;" d="M147 135L148 136L147 135M228 135L229 136L228 135z"/>
<path style="fill:#a283ef; stroke:none;" d="M148 136L149 137L148 136M228 136L229 137L228 136M149 137L150 138L149 137z"/>
<path style="fill:#e6d8e2; stroke:none;" d="M229 137L230 138L229 137z"/>
<path style="fill:#a283ef; stroke:none;" d="M150 138L151 139L150 138M229 138L230 139L229 138M151 139L152 140L151 139z"/>
<path style="fill:#e6d8e2; stroke:none;" d="M230 139L231 140L230 139z"/>
<path style="fill:#8b2fff; stroke:none;" d="M152 140L153 141L152 140z"/>
<path style="fill:#a283ef; stroke:none;" d="M230 140L231 141L230 140z"/>
<path style="fill:#e6d8e2; stroke:none;" d="M152 141L153 142L152 141M231 141L232 142L231 141M153 142L154 143L153 142z"/>
<path style="fill:#a283ef; stroke:none;" d="M231 142L232 143L231 142M154 143L155 144L154 143z"/>
<path style="fill:#e6d8e2; stroke:none;" d="M232 143L233 144L232 143z"/>
<path style="fill:#a283ef; stroke:none;" d="M155 144L156 145L155 144M232 144L233 145L232 144M156 145L157 146L156 145z"/>
<path style="fill:#e6d8e2; stroke:none;" d="M233 145L234 146L233 145z"/>
<path style="fill:#a283ef; stroke:none;" d="M157 146L158 147L157 146M233 146L234 147L233 146z"/>
<path style="fill:#8b2fff; stroke:none;" d="M158 147L159 148L158 147z"/>
<path style="fill:#a283ef; stroke:none;" d="M234 147L235 148L234 147z"/>
<path style="fill:#e6d8e2; stroke:none;" d="M158 148L159 149L158 148z"/>
<path style="fill:#8b2fff; stroke:none;" d="M234 148L235 149L234 148z"/>
<path style="fill:#a283ef; stroke:none;" d="M159 149L157 150L157 151L159 149M235 149L236 150L235 149z"/>
<path style="fill:#e6d8e2; stroke:none;" d="M156 150L157 151L156 150z"/>
<path style="fill:#8b2fff; stroke:none;" d="M159 150L160 151L159 150z"/>
<path style="fill:#e6d8e2; stroke:none;" d="M236 150L237 151L236 150M153 151L154 152L153 151z"/>
<path style="fill:#a283ef; stroke:none;" d="M154.667 151.333L155.333 151.667L154.667 151.333M236 151L237 152L236 151z"/>
<path style="fill:#e6d8e2; stroke:none;" d="M149.667 152.333L150.333 152.667L149.667 152.333z"/>
<path style="fill:#a283ef; stroke:none;" d="M151 152L152 153L151 152z"/>
<path style="fill:#8b2fff; stroke:none;" d="M152 152L153 153L152 152z"/>
<path style="fill:#a283ef; stroke:none;" d="M237 152L238 153L237 152z"/>
<path style="fill:#e6d8e2; stroke:none;" d="M146 153L147 154L146 153z"/>
<path style="fill:#a283ef; stroke:none;" d="M147.667 153.333L148.333 153.667L147.667 153.333z"/>
<path style="fill:#e6d8e2; stroke:none;" d="M238 153L239 154L238 153M142.667 154.333L143.333 154.667L142.667 154.333z"/>
<path style="fill:#a283ef; stroke:none;" d="M144.667 154.333L145.333 154.667L144.667 154.333z"/>
<path style="fill:#8b2fff; stroke:none;" d="M238 154L239 155L238 154z"/>
<path style="fill:#e6d8e2; stroke:none;" d="M137.667 155.333L138.333 155.667L137.667 155.333z"/>
<path style="fill:#a283ef; stroke:none;" d="M139 155L140 156L139 155z"/>
<path style="fill:#8b2fff; stroke:none;" d="M140 155L141 156L140 155z"/>
<path style="fill:#a283ef; stroke:none;" d="M239 155L240 156L239 155z"/>
<path style="fill:#e6d8e2; stroke:none;" d="M134 156L135 157L134 156z"/>
<path style="fill:#a283ef; stroke:none;" d="M135 156L136 157L135 156z"/>
<path style="fill:#8b2fff; stroke:none;" d="M136 156L137 157L136 156z"/>
<path style="fill:#a283ef; stroke:none;" d="M240 156L241 157L240 156z"/>
<path style="fill:#e6d8e2; stroke:none;" d="M131 157L132 158L131 157z"/>
<path style="fill:#a283ef; stroke:none;" d="M132.667 157.333L133.333 157.667L132.667 157.333z"/>
<path style="fill:#e6d8e2; stroke:none;" d="M241 157L242 158L241 157M129 158L130 159L129 158z"/>
<path style="fill:#a283ef; stroke:none;" d="M130 158L131 159L130 158z"/>
<path style="fill:#8b2fff; stroke:none;" d="M241 158L242 159L241 158z"/>
<path style="fill:#a283ef; stroke:none;" d="M128 159L129 160L128 159M242 159L243 160L242 159M126.667 160.333L127.333 160.667L126.667 160.333M243 160L244 161L243 160z"/>
<path style="fill:#e6d8e2; stroke:none;" d="M124 161L125 162L124 161z"/>
<path style="fill:#a283ef; stroke:none;" d="M125 161L126 162L125 161M244 161L245 162L244 161M123 162L124 163L123 162z"/>
<path style="fill:#e6d8e2; stroke:none;" d="M245 162L246 163L245 162M121 163L122 164L121 163z"/>
<path style="fill:#a283ef; stroke:none;" d="M122 163L123 164L122 163z"/>
<path style="fill:#e6d8e2; stroke:none;" d="M246 163L248 165L246 163M119 164L120 165L119 164z"/>
<path style="fill:#a283ef; stroke:none;" d="M120 164L121 165L120 164z"/>
<path style="fill:#8b2fff; stroke:none;" d="M208 196C212.443 193.663 219.952 191.817 223.411 188.298C231.897 179.666 218.076 172.32 211 171.3C193.137 168.725 174.737 175.281 157 172L160 165C143.605 161.097 138.188 169.235 126.981 178.485C118.535 185.457 109.152 191.701 100 197.694C95.688 200.518 78.9735 210.697 85.6042 217.397C91.5876 223.442 105.799 212.686 111 209.603C120.738 203.833 130.821 195.178 141.91 192.296C154.335 189.066 169.956 191.407 183 189.845C190.576 188.938 210.461 183.038 208 196M246 164L247 165L246 164z"/>
<path style="fill:#e6d8e2; stroke:none;" d="M117 165L118 166L117 165z"/>
<path style="fill:#a283ef; stroke:none;" d="M118 165L119 166L118 165z"/>
<path style="fill:#8b2fff; stroke:none;" d="M247 165L248 166L247 165z"/>
<path style="fill:#e6d8e2; stroke:none;" d="M68 166L68 167L74 167L68 166M115 166L116 167L115 166z"/>
<path style="fill:#a283ef; stroke:none;" d="M116 166L117 167L116 166M248 166L249 167L248 166z"/>
<path style="fill:#e6d8e2; stroke:none;" d="M60.6667 167.333L61.3333 167.667L60.6667 167.333z"/>
<path style="fill:#a283ef; stroke:none;" d="M62.6667 167.333L63.3333 167.667L62.6667 167.333z"/>
<path style="fill:#8b2fff; stroke:none;" d="M64 167L65 168L64 167M76 167L77 168L76 167z"/>
<path style="fill:#a283ef; stroke:none;" d="M77 167L78 168L77 167z"/>
<path style="fill:#e6d8e2; stroke:none;" d="M78 167L79 168L78 167M113 167L114 168L113 167z"/>
<path style="fill:#a283ef; stroke:none;" d="M114 167L115 168L114 167M249 167L250 168L249 167z"/>
<path style="fill:#e6d8e2; stroke:none;" d="M57 168L58 169L57 168z"/>
<path style="fill:#a283ef; stroke:none;" d="M58.6667 168.333L59.3333 168.667L58.6667 168.333z"/>
<path style="fill:#8b2fff; stroke:none;" d="M80 168L81 169L80 168z"/>
<path style="fill:#a283ef; stroke:none;" d="M81 168L82 169L81 168z"/>
<path style="fill:#e6d8e2; stroke:none;" d="M82 168L83 169L82 168M110 168L111 169L110 168z"/>
<path style="fill:#a283ef; stroke:none;" d="M111.667 168.333L112.333 168.667L111.667 168.333M250 168L251 169L250 168z"/>
<path style="fill:#e6d8e2; stroke:none;" d="M53 169L54 170L53 169z"/>
<path style="fill:#a283ef; stroke:none;" d="M54.6667 169.333L55.3333 169.667L54.6667 169.333z"/>
<path style="fill:#8b2fff; stroke:none;" d="M84.6667 169.333L85.3333 169.667L84.6667 169.333z"/>
<path style="fill:#e6d8e2; stroke:none;" d="M86.6667 169.333L87.3333 169.667L86.6667 169.333M107 169L108 170L107 169z"/>
<path style="fill:#a283ef; stroke:none;" d="M108.667 169.333L109.333 169.667L108.667 169.333M251 169L252 170L251 169z"/>
<path style="fill:#e6d8e2; stroke:none;" d="M50 170L51 171L50 170z"/>
<path style="fill:#a283ef; stroke:none;" d="M51.6667 170.333L52.3333 170.667L51.6667 170.333z"/>
<path style="fill:#8b2fff; stroke:none;" d="M88.6667 170.333L89.3333 170.667L88.6667 170.333z"/>
<path style="fill:#a283ef; stroke:none;" d="M90 170L91 171L90 170z"/>
<path style="fill:#e6d8e2; stroke:none;" d="M91 170L91 171L94 171L91 170M103.667 170.333L104.333 170.667L103.667 170.333z"/>
<path style="fill:#a283ef; stroke:none;" d="M105.667 170.333L106.333 170.667L105.667 170.333M252 170L253 171L252 170z"/>
<path style="fill:#e6d8e2; stroke:none;" d="M47 171L48 172L47 171z"/>
<path style="fill:#a283ef; stroke:none;" d="M48.6667 171.333L49.3333 171.667L48.6667 171.333z"/>
<path style="fill:#8b2fff; stroke:none;" d="M97 171L97 172L100 172L97 171z"/>
<path style="fill:#e6d8e2; stroke:none;" d="M253 171L254 172L253 171M45 172L46 173L45 172z"/>
<path style="fill:#a283ef; stroke:none;" d="M46 172L47 173L46 172z"/>
<path style="fill:#e6d8e2; stroke:none;" d="M254 172L255 173L254 172M43 173L44 174L43 173z"/>
<path style="fill:#a283ef; stroke:none;" d="M44 173L45 174L44 173z"/>
<path style="fill:#e6d8e2; stroke:none;" d="M255 173L256 174L255 173M41 174L42 175L41 174z"/>
<path style="fill:#a283ef; stroke:none;" d="M42 174L43 175L42 174z"/>
<path style="fill:#e6d8e2; stroke:none;" d="M256 174L257 175L256 174M39 175L40 176L39 175z"/>
<path style="fill:#a283ef; stroke:none;" d="M40 175L41 176L40 175z"/>
<path style="fill:#e6d8e2; stroke:none;" d="M257 175L258 176L257 175z"/>
<path style="fill:#a283ef; stroke:none;" d="M38 176L39 177L38 176z"/>
<path style="fill:#e6d8e2; stroke:none;" d="M258 176L259 177L258 176z"/>
<path style="fill:#a283ef; stroke:none;" d="M37 177L38 178L37 177z"/>
<path style="fill:#e6d8e2; stroke:none;" d="M259 177L260 178L259 177z"/>
<path style="fill:#a283ef; stroke:none;" d="M36 178L37 179L36 178z"/>
<path style="fill:#e6d8e2; stroke:none;" d="M260 178L262 180L260 178z"/>
<path style="fill:#a283ef; stroke:none;" d="M35 179L36 180L35 179z"/>
<path style="fill:#8b2fff; stroke:none;" d="M260 179L261 180L260 179z"/>
<path style="fill:#a283ef; stroke:none;" d="M34 180L35 181L34 180z"/>
<path style="fill:#8b2fff; stroke:none;" d="M261 180L262 181L261 180z"/>
<path style="fill:#e6d8e2; stroke:none;" d="M33 181L34 182L33 181z"/>
<path style="fill:#8b2fff; stroke:none;" d="M56 181C51.7609 181.103 49.89 181.67 47.1242 184.9C45.5474 186.741 43.4041 188.154 42.0926 190.209C34.7676 201.685 58.5162 200.988 64.9846 199.772C67.4581 199.306 70.0429 197.877 69.9136 194.995C69.5528 186.953 57.2935 188.929 56 181z"/>
<path style="fill:#a283ef; stroke:none;" d="M262 181L263 182L262 181z"/>
<path style="fill:#8b2fff; stroke:none;" d="M33 182L34 183L33 182z"/>
<path style="fill:#a283ef; stroke:none;" d="M263 182L264 183L263 182z"/>
<path style="fill:#e6d8e2; stroke:none;" d="M32 183L33 184L32 183z"/>
<path style="fill:#a283ef; stroke:none;" d="M264 183L265 184L264 183z"/>
<path style="fill:#8b2fff; stroke:none;" d="M32 184L33 185L32 184z"/>
<path style="fill:#a283ef; stroke:none;" d="M265 184L266 185L265 184z"/>
<path style="fill:#e6d8e2; stroke:none;" d="M31.3333 185.667L31.6667 186.333L31.3333 185.667M266 185L267 186L266 185z"/>
<path style="fill:#8b2fff; stroke:none;" d="M31 187L32 188L31 187z"/>
<path style="fill:#a283ef; stroke:none;" d="M267 187L268 188L267 187M268 188L269 189L268 188M269 189L270 190L269 189z"/>
<path style="fill:#e6d8e2; stroke:none;" d="M270 190L271 191L270 190z"/>
<path style="fill:#8b2fff; stroke:none;" d="M270 191L271 192L270 191z"/>
<path style="fill:#a283ef; stroke:none;" d="M271 192L272 193L271 192M31.3333 193.667L31.6667 194.333L31.3333 193.667M272 193L273 194L272 193z"/>
<path style="fill:#e6d8e2; stroke:none;" d="M273 194L274 195L273 194M31 195L32 196L31 195z"/>
<path style="fill:#a283ef; stroke:none;" d="M273 195L274 196L273 195M32 196L33 197L32 196M274 196L275 197L274 196M33 197L34 198L33 197z"/>
<path style="fill:#e6d8e2; stroke:none;" d="M275 197L276 198L275 197M33 198L34 199L33 198z"/>
<path style="fill:#8b2fff; stroke:none;" d="M275 198L276 199L275 198z"/>
<path style="fill:#a283ef; stroke:none;" d="M34 199L35 200L34 199M276 199L277 200L276 199M35 200L36 201L35 200z"/>
<path style="fill:#e6d8e2; stroke:none;" d="M277 200L278 201L277 200z"/>
<path style="fill:#a283ef; stroke:none;" d="M36 201L37 202L36 201z"/>
<path style="fill:#8b2fff; stroke:none;" d="M277 201L278 202L277 201z"/>
<path style="fill:#a283ef; stroke:none;" d="M37 202L38 203L37 202M278 202L279 203L278 202M38 203L39 204L38 203z"/>
<path style="fill:#e6d8e2; stroke:none;" d="M279 203L280 204L279 203z"/>
<path style="fill:#a283ef; stroke:none;" d="M39 204L40 205L39 204M279 204L280 205L279 204M40 205L41 206L40 205z"/>
<path style="fill:#8b2fff; stroke:none;" d="M139 213L139 214L163 207C153.326 202.939 146.609 207.36 139 213z"/>
<path style="fill:#a283ef; stroke:none;" d="M280 205L281 206L280 205z"/>
<path style="fill:#e6d8e2; stroke:none;" d="M41 206L42 207L41 206M281 206L282 207L281 206M42 207L44 209L42 207z"/>
<path style="fill:#8b2fff; stroke:none;" d="M43 207L44 208L43 207z"/>
<path style="fill:#a283ef; stroke:none;" d="M281 207L282 208L281 207M44 208L45 209L44 208z"/>
<path style="fill:#8b2fff; stroke:none;" d="M159 221C155.837 231.064 137.877 227.969 135.414 240.996C133.269 252.335 151.799 244.258 157 243.439C167.641 241.764 177.433 241.589 188 238.573C200.208 235.088 212.296 228.37 225 233L220 245C224.008 242.538 235.753 240.819 237.893 237.772C246.083 226.106 223.814 209.087 214 208.105C195.199 206.224 177.178 217.575 159 221z"/>
<path style="fill:#e6d8e2; stroke:none;" d="M282 208L283 209L282 208M45 209L47 211L45 209z"/>
<path style="fill:#8b2fff; stroke:none;" d="M46 209L47 210L46 209z"/>
<path style="fill:#a283ef; stroke:none;" d="M282 209L283 210L282 209M47 210L48 211L47 210M283.333 210.667L283.667 211.333L283.333 210.667z"/>
<path style="fill:#e6d8e2; stroke:none;" d="M48 211L49 212L48 211z"/>
<path style="fill:#8b2fff; stroke:none;" d="M49 211L50 212L49 211z"/>
<path style="fill:#e6d8e2; stroke:none;" d="M50 212L51 213L50 212z"/>
<path style="fill:#8b2fff; stroke:none;" d="M51 212L52 213L51 212z"/>
<path style="fill:#a283ef; stroke:none;" d="M284 212L285 213L284 212z"/>
<path style="fill:#e6d8e2; stroke:none;" d="M52 213L53 214L52 213z"/>
<path style="fill:#8b2fff; stroke:none;" d="M53 213L54 214L53 213z"/>
<path style="fill:#e6d8e2; stroke:none;" d="M285 213L286 214L285 213M54 214L55 215L54 214z"/>
<path style="fill:#8b2fff; stroke:none;" d="M55 214L56 215L55 214z"/>
<path style="fill:#a283ef; stroke:none;" d="M285 214L286 215L285 214z"/>
<path style="fill:#e6d8e2; stroke:none;" d="M56 215L57 216L56 215z"/>
<path style="fill:#8b2fff; stroke:none;" d="M57 215L58 216L57 215z"/>
<path style="fill:#e6d8e2; stroke:none;" d="M286 215L287 216L286 215M58 216L59 217L58 216z"/>
<path style="fill:#a283ef; stroke:none;" d="M59 216L60 217L59 216z"/>
<path style="fill:#8b2fff; stroke:none;" d="M60 216L61 217L60 216z"/>
<path style="fill:#a283ef; stroke:none;" d="M286 216L287 217L286 216z"/>
<path style="fill:#e6d8e2; stroke:none;" d="M61 217L62 218L61 217z"/>
<path style="fill:#8b2fff; stroke:none;" d="M62 217L63 218L62 217z"/>
<path style="fill:#e6d8e2; stroke:none;" d="M287 217L288 218L287 217M63 218L64 219L63 218z"/>
<path style="fill:#8b2fff; stroke:none;" d="M64 218L65 219L64 218z"/>
<path style="fill:#a283ef; stroke:none;" d="M287 218L288 219L287 218z"/>
<path style="fill:#e6d8e2; stroke:none;" d="M65 219L66 220L65 219z"/>
<path style="fill:#8b2fff; stroke:none;" d="M66 219L67 220L66 219M287 219L288 220L287 219z"/>
<path style="fill:#e6d8e2; stroke:none;" d="M67 220L68 221L67 220z"/>
<path style="fill:#8b2fff; stroke:none;" d="M68 220L69 221L68 220z"/>
<path style="fill:#a283ef; stroke:none;" d="M288.333 220.667L288.667 221.333L288.333 220.667z"/>
<path style="fill:#e6d8e2; stroke:none;" d="M69 221L70 222L69 221z"/>
<path style="fill:#8b2fff; stroke:none;" d="M70 221L71 222L70 221z"/>
<path style="fill:#e6d8e2; stroke:none;" d="M71 222L72 223L71 222z"/>
<path style="fill:#a283ef; stroke:none;" d="M72 222L73 223L72 222z"/>
<path style="fill:#e6d8e2; stroke:none;" d="M289 222L290 223L289 222M73 223L74 224L73 223z"/>
<path style="fill:#a283ef; stroke:none;" d="M74.3333 223.667L74.6667 224.333L74.3333 223.667M289 223L290 224L289 223z"/>
<path style="fill:#e6d8e2; stroke:none;" d="M290 224L291 225L290 224M74 225L75 226L74 225z"/>
<path style="fill:#a283ef; stroke:none;" d="M290.333 225.667L290.667 226.333L290.333 225.667z"/>
<path style="fill:#8b2fff; stroke:none;" d="M75 226L76 227L75 226z"/>
<path style="fill:#a283ef; stroke:none;" d="M75 227L76 228L75 227z"/>
<path style="fill:#e6d8e2; stroke:none;" d="M291 227L292 228L291 227M75.3333 228.667L75.6667 229.333L75.3333 228.667z"/>
<path style="fill:#a283ef; stroke:none;" d="M291 228L292 229L291 228z"/>
<path style="fill:#e6d8e2; stroke:none;" d="M292 229L293 230L292 229z"/>
<path style="fill:#a283ef; stroke:none;" d="M76.3333 230.667L76.6667 231.333L76.3333 230.667M292 230L293 231L292 230z"/>
<path style="fill:#8b2fff; stroke:none;" d="M292 231L293 232L292 231z"/>
<path style="fill:#e6d8e2; stroke:none;" d="M76 232L77 233L76 232M293 232L294 233L293 232z"/>
<path style="fill:#a283ef; stroke:none;" d="M77.3333 233.667L77.6667 234.333L77.3333 233.667M293 233L294 234L293 233z"/>
<path style="fill:#e6d8e2; stroke:none;" d="M294 234L295 235L294 234M77 235L78 236L77 235z"/>
<path style="fill:#a283ef; stroke:none;" d="M294.333 235.667L294.667 236.333L294.333 235.667M78.3333 236.667L78.6667 237.333L78.3333 236.667z"/>
<path style="fill:#e6d8e2; stroke:none;" d="M295.333 237.667L295.667 238.333L295.333 237.667M78 238L79 239L78 238z"/>
<path style="fill:#a283ef; stroke:none;" d="M79 239L80 240L79 239M295 239L296 240L295 239z"/>
<path style="fill:#e6d8e2; stroke:none;" d="M79 240L80 241L79 240z"/>
<path style="fill:#a283ef; stroke:none;" d="M80.3333 241.667L80.6667 242.333L80.3333 241.667z"/>
<path style="fill:#e6d8e2; stroke:none;" d="M296 241L297 242L296 241z"/>
<path style="fill:#a283ef; stroke:none;" d="M296 242L297 243L296 242M81.3333 243.667L81.6667 244.333L81.3333 243.667z"/>
<path style="fill:#8b2fff; stroke:none;" d="M296 243L297 244L296 243z"/>
<path style="fill:#e6d8e2; stroke:none;" d="M297 244L298 245L297 244z"/>
<path style="fill:#a283ef; stroke:none;" d="M82 245L83 246L82 245M297 245L298 246L297 245z"/>
<path style="fill:#e6d8e2; stroke:none;" d="M82 246L83 247L82 246z"/>
<path style="fill:#8b2fff; stroke:none;" d="M297 246L298 247L297 246z"/>
<path style="fill:#a283ef; stroke:none;" d="M83 247L84 248L83 247M113 247L114 248L113 247z"/>
<path style="fill:#e6d8e2; stroke:none;" d="M298 247L299 248L298 247z"/>
<path style="fill:#8b2fff; stroke:none;" d="M84 248L85 249L84 248z"/>
<path style="fill:#e6d8e2; stroke:none;" d="M112 248L111 250L113 250L112 248z"/>
<path style="fill:#8b2fff; stroke:none;" d="M113 248L114 249L113 248z"/>
<path style="fill:#a283ef; stroke:none;" d="M298.333 248.667L298.667 249.333L298.333 248.667z"/>
<path style="fill:#e6d8e2; stroke:none;" d="M84 249L85 250L84 249z"/>
<path style="fill:#a283ef; stroke:none;" d="M110 249L111 250L110 249z"/>
<path style="fill:#e6d8e2; stroke:none;" d="M85 250L86 251L85 250z"/>
<path style="fill:#a283ef; stroke:none;" d="M109 250L110 251L109 250z"/>
<path style="fill:#8b2fff; stroke:none;" d="M112 250L113 251L112 250z"/>
<path style="fill:#e6d8e2; stroke:none;" d="M86 251L88 253L86 251z"/>
<path style="fill:#8b2fff; stroke:none;" d="M87 251L88 252L87 251z"/>
<path style="fill:#a283ef; stroke:none;" d="M107 251L108 252L107 251z"/>
<path style="fill:#e6d8e2; stroke:none;" d="M299 251L300 252L299 251z"/>
<path style="fill:#8b2fff; stroke:none;" d="M88 252L89 253L88 252z"/>
<path style="fill:#a283ef; stroke:none;" d="M104.667 252.333L105.333 252.667L104.667 252.333z"/>
<path style="fill:#e6d8e2; stroke:none;" d="M106 252L107 253L106 252M111 252L112 253L111 252z"/>
<path style="fill:#a283ef; stroke:none;" d="M299 252L300 253L299 252z"/>
<path style="fill:#e6d8e2; stroke:none;" d="M89 253L90 254L89 253z"/>
<path style="fill:#8b2fff; stroke:none;" d="M90 253L91 254L90 253z"/>
<path style="fill:#a283ef; stroke:none;" d="M101.667 253.333L102.333 253.667L101.667 253.333z"/>
<path style="fill:#8b2fff; stroke:none;" d="M111 253L112 254L111 253M299 253L300 254L299 253z"/>
<path style="fill:#e6d8e2; stroke:none;" d="M92.6667 254.333L93.3333 254.667L92.6667 254.333z"/>
<path style="fill:#a283ef; stroke:none;" d="M94 254L94 255L98 255L94 254z"/>
<path style="fill:#e6d8e2; stroke:none;" d="M98 254L99 255L98 254M110 255L110 258L111 258L110 255M300 255L301 256L300 255z"/>
<path style="fill:#a283ef; stroke:none;" d="M169 256L169 257L173 257L169 256z"/>
<path style="fill:#e6d8e2; stroke:none;" d="M173 256L173 257L176 257L173 256z"/>
<path style="fill:#8b2fff; stroke:none;" d="M176 256L177 257L176 256M208 263C205.322 272.547 183.98 277.35 176 282.964C173.659 284.61 168.441 286.853 167.921 290.036C167.055 295.347 183.353 292.348 186 292.05C200.302 290.439 214.591 285.002 229 285.002C235.121 285.002 244.678 288.42 249.682 283.566C258.605 274.911 244.025 268.931 239.264 265.157C236.59 263.038 236.748 259.119 233.761 257.318C225.492 252.333 214.985 259.126 208 263z"/>
<path style="fill:#a283ef; stroke:none;" d="M300 256L301 257L300 256z"/>
<path style="fill:#8b2fff; stroke:none;" d="M168 257L169 258L168 257z"/>
<path style="fill:#010101; stroke:none;" d="M167 263L177 257C171.556 257.019 168.712 257.424 167 263z"/>
<path style="fill:#e6d8e2; stroke:none;" d="M177.333 257.667L177.667 258.333L177.333 257.667z"/>
<path style="fill:#8b2fff; stroke:none;" d="M178 257L179 258L178 257M300 257L301 258L300 257z"/>
<path style="fill:#a283ef; stroke:none;" d="M110.333 258.667L110.667 259.333L110.333 258.667z"/>
<path style="fill:#e6d8e2; stroke:none;" d="M168 258L169 259L168 258z"/>
<path style="fill:#a283ef; stroke:none;" d="M178 258L179 259L178 258z"/>
<path style="fill:#e6d8e2; stroke:none;" d="M301.333 258.667L301.667 259.333L301.333 258.667z"/>
<path style="fill:#8b2fff; stroke:none;" d="M167 259L168 260L167 259z"/>
<path style="fill:#e6d8e2; stroke:none;" d="M175 259L176 260L175 259z"/>
<path style="fill:#a283ef; stroke:none;" d="M176 259L177 260L176 259z"/>
<path style="fill:#8b2fff; stroke:none;" d="M110 260L111 261L110 260z"/>
<path style="fill:#e6d8e2; stroke:none;" d="M167 260L168 261L167 260M172 260L173 261L172 260z"/>
<path style="fill:#a283ef; stroke:none;" d="M173.667 260.333L174.333 260.667L173.667 260.333M301.333 260.667L301.667 261.333L301.333 260.667M110 261L110 264L111 264L110 261z"/>
<path style="fill:#8b2fff; stroke:none;" d="M166 261L167 262L166 261z"/>
<path style="fill:#e6d8e2; stroke:none;" d="M170 261L171 262L170 261z"/>
<path style="fill:#a283ef; stroke:none;" d="M171 261L172 262L171 261z"/>
<path style="fill:#e6d8e2; stroke:none;" d="M166 262L167 263L166 262M168 262L169 263L168 262z"/>
<path style="fill:#a283ef; stroke:none;" d="M169 262L170 263L169 262z"/>
<path style="fill:#8b2fff; stroke:none;" d="M165 263L166 264L165 263z"/>
<path style="fill:#a283ef; stroke:none;" d="M166.667 263.333L167.333 263.667L166.667 263.333z"/>
<path style="fill:#e6d8e2; stroke:none;" d="M302 263L303 264L302 263M110 264L111 265L110 264z"/>
<path style="fill:#a283ef; stroke:none;" d="M302.333 264.667L302.667 265.333L302.333 264.667z"/>
<path style="fill:#8b2fff; stroke:none;" d="M302 266L303 267L302 266z"/>
<path style="fill:#a283ef; stroke:none;" d="M111 267L112 268L111 267z"/>
<path style="fill:#e6d8e2; stroke:none;" d="M111.333 268.667L111.667 269.333L111.333 268.667M303 268L304 269L303 268z"/>
<path style="fill:#a283ef; stroke:none;" d="M303.333 269.667L303.667 270.333L303.333 269.667M112 270L113 271L112 270z"/>
<path style="fill:#e6d8e2; stroke:none;" d="M112 271L113 272L112 271z"/>
<path style="fill:#a283ef; stroke:none;" d="M113 272L114 273L113 272z"/>
<path style="fill:#e6d8e2; stroke:none;" d="M113 273L114 274L113 273M304 273L305 274L304 273z"/>
<path style="fill:#a283ef; stroke:none;" d="M114 274L115 275L114 274M304.333 274.667L304.667 275.333L304.333 274.667z"/>
<path style="fill:#e6d8e2; stroke:none;" d="M114 275L115 276L114 275z"/>
<path style="fill:#a283ef; stroke:none;" d="M115 276L116 277L115 276z"/>
<path style="fill:#8b2fff; stroke:none;" d="M304 276L305 277L304 276z"/>
<path style="fill:#a283ef; stroke:none;" d="M116 277L117 278L116 277z"/>
<path style="fill:#e6d8e2; stroke:none;" d="M305.333 277.667L305.667 278.333L305.333 277.667z"/>
<path style="fill:#a283ef; stroke:none;" d="M117 278L118 279L117 278z"/>
<path style="fill:#e6d8e2; stroke:none;" d="M117 279L122 284L117 279z"/>
<path style="fill:#8b2fff; stroke:none;" d="M118 279L119 280L118 279z"/>
<path style="fill:#a283ef; stroke:none;" d="M305.333 279.667L305.667 280.333L305.333 279.667z"/>
<path style="fill:#8b2fff; stroke:none;" d="M119 280L120 281L119 280M120 281L121 282L120 281M305.333 281.667L305.667 282.333L305.333 281.667M121 282L122 283L121 282z"/>
<path style="fill:#a283ef; stroke:none;" d="M122 283L123 284L122 283M123 284L124 285L123 284z"/>
<path style="fill:#e6d8e2; stroke:none;" d="M306.333 284.667L306.667 285.333L306.333 284.667z"/>
<path style="fill:#a283ef; stroke:none;" d="M124 285L125 286L124 285z"/>
<path style="fill:#e6d8e2; stroke:none;" d="M125 286L127 288L125 286z"/>
<path style="fill:#8b2fff; stroke:none;" d="M126 286L127 287L126 286z"/>
<path style="fill:#a283ef; stroke:none;" d="M306 286L306 289L307 289L306 286z"/>
<path style="fill:#8b2fff; stroke:none;" d="M127 287L128 288L127 287z"/>
<path style="fill:#e6d8e2; stroke:none;" d="M128 288L129 289L128 288M129 289L130 290L129 289z"/>
<path style="fill:#8b2fff; stroke:none;" d="M130 289L131 290L130 289M306 289L307 290L306 289z"/>
<path style="fill:#e6d8e2; stroke:none;" d="M131 290L132 291L131 290z"/>
<path style="fill:#8b2fff; stroke:none;" d="M132 290L133 291L132 290z"/>
<path style="fill:#a283ef; stroke:none;" d="M133 291L134 292L133 291z"/>
<path style="fill:#e6d8e2; stroke:none;" d="M134 292L135 293L134 292z"/>
<path style="fill:#8b2fff; stroke:none;" d="M135 292L136 293L135 292z"/>
<path style="fill:#e6d8e2; stroke:none;" d="M307.333 292.667L307.667 293.333L307.333 292.667M136 293L137 294L136 293z"/>
<path style="fill:#8b2fff; stroke:none;" d="M137 293L138 294L137 293z"/>
<path style="fill:#e6d8e2; stroke:none;" d="M138 294L139 295L138 294z"/>
<path style="fill:#8b2fff; stroke:none;" d="M139.667 294.333L140.333 294.667L139.667 294.333z"/>
<path style="fill:#a283ef; stroke:none;" d="M307 294L307 297L308 297L307 294z"/>
<path style="fill:#e6d8e2; stroke:none;" d="M141.667 295.333L142.333 295.667L141.667 295.333z"/>
<path style="fill:#8b2fff; stroke:none;" d="M143 295L143 296L148 296L143 295z"/>
<path style="fill:#a283ef; stroke:none;" d="M148 295L149 299L150 299L148 295z"/>
<path style="fill:#e6d8e2; stroke:none;" d="M148 296L149 297L148 296z"/>
<path style="fill:#8b2fff; stroke:none;" d="M307.333 297.667L307.667 298.333L307.333 297.667z"/>
<path style="fill:#e6d8e2; stroke:none;" d="M149.333 299.667L149.667 300.333L149.333 299.667z"/>
<path style="fill:#8b2fff; stroke:none;" d="M150 301L151 302L150 301z"/>
<path style="fill:#e6d8e2; stroke:none;" d="M308 301L308 304L309 304L308 301z"/>
<path style="fill:#a283ef; stroke:none;" d="M150.333 302.667L150.667 303.333L150.333 302.667z"/>
<path style="fill:#8b2fff; stroke:none;" d="M203.667 302.333L204.333 302.667L203.667 302.333z"/>
<path style="fill:#a283ef; stroke:none;" d="M205 302L206 303L205 302z"/>
<path style="fill:#8b2fff; stroke:none;" d="M206 302L207 303L206 302M199 303L200 304L199 303z"/>
<path style="fill:#a283ef; stroke:none;" d="M200 303L201 304L200 303z"/>
<path style="fill:#e6d8e2; stroke:none;" d="M201 303L202 304L201 303M206 303L207 304L206 303M150 304L151 305L150 304z"/>
<path style="fill:#a283ef; stroke:none;" d="M198 304L199 305L198 304z"/>
<path style="fill:#e6d8e2; stroke:none;" d="M207 304L208 305L207 304z"/>
<path style="fill:#a283ef; stroke:none;" d="M308 304L308 310L309 310L308 304z"/>
<path style="fill:#8b2fff; stroke:none;" d="M195 305L196 306L195 305z"/>
<path style="fill:#a283ef; stroke:none;" d="M196 305L197 306L196 305z"/>
<path style="fill:#e6d8e2; stroke:none;" d="M197 305L198 306L197 305z"/>
<path style="fill:#a283ef; stroke:none;" d="M208 305L209 306L208 305M151 306L152 307L151 306z"/>
<path style="fill:#e6d8e2; stroke:none;" d="M195 306L196 307L195 306z"/>
<path style="fill:#a283ef; stroke:none;" d="M209 306L210 307L209 306z"/>
<path style="fill:#e6d8e2; stroke:none;" d="M151 307L152 308L151 307z"/>
<path style="fill:#8b2fff; stroke:none;" d="M194 307L195 308L194 307z"/>
<path style="fill:#a283ef; stroke:none;" d="M210 307L211 308L210 307M152 308L153 309L152 308z"/>
<path style="fill:#e6d8e2; stroke:none;" d="M194 308L195 309L194 308M210 308L211 309L210 308z"/>
<path style="fill:#8b2fff; stroke:none;" d="M211 308L212 309L211 308z"/>
<path style="fill:#e6d8e2; stroke:none;" d="M152 309L153 310L152 309z"/>
<path style="fill:#a283ef; stroke:none;" d="M193 309L194 310L193 309M211 309L212 310L211 309M153 310L154 311L153 310z"/>
<path style="fill:#8b2fff; stroke:none;" d="M192 310L193 311L192 310z"/>
<path style="fill:#e6d8e2; stroke:none;" d="M211 310L212 311L211 310z"/>
<path style="fill:#8b2fff; stroke:none;" d="M308 310L308 324L309 324L308 310z"/>
<path style="fill:#a283ef; stroke:none;" d="M154 311L155 312L154 311z"/>
<path style="fill:#e6d8e2; stroke:none;" d="M192 311L193 312L192 311M154 312L158 316L154 312z"/>
<path style="fill:#8b2fff; stroke:none;" d="M155 312L156 313L155 312z"/>
<path style="fill:#e6d8e2; stroke:none;" d="M191 312L192 313L191 312z"/>
<path style="fill:#a283ef; stroke:none;" d="M212.333 312.667L212.667 313.333L212.333 312.667z"/>
<path style="fill:#8b2fff; stroke:none;" d="M156 313L157 314L156 313z"/>
<path style="fill:#a283ef; stroke:none;" d="M190 313L191 314L190 313z"/>
<path style="fill:#8b2fff; stroke:none;" d="M157 314L158 315L157 314z"/>
<path style="fill:#a283ef; stroke:none;" d="M189 314L190 315L189 314z"/>
<path style="fill:#e6d8e2; stroke:none;" d="M212 314L213 315L212 314z"/>
<path style="fill:#a283ef; stroke:none;" d="M158 315L159 316L158 315z"/>
<path style="fill:#e6d8e2; stroke:none;" d="M188 315L189 316L188 315z"/>
<path style="fill:#a283ef; stroke:none;" d="M213.333 315.667L213.667 316.333L213.333 315.667z"/>
<path style="fill:#e6d8e2; stroke:none;" d="M159 316L160 317L159 316z"/>
<path style="fill:#8b2fff; stroke:none;" d="M160 316L161 317L160 316z"/>
<path style="fill:#a283ef; stroke:none;" d="M186 316L187 317L186 316z"/>
<path style="fill:#e6d8e2; stroke:none;" d="M161 317L162 318L161 317z"/>
<path style="fill:#8b2fff; stroke:none;" d="M162 317L163 318L162 317z"/>
<path style="fill:#a283ef; stroke:none;" d="M184.667 317.333L185.333 317.667L184.667 317.333z"/>
<path style="fill:#e6d8e2; stroke:none;" d="M213 317L214 318L213 317M163.667 318.333L164.333 318.667L163.667 318.333z"/>
<path style="fill:#8b2fff; stroke:none;" d="M165 318L166 319L165 318z"/>
<path style="fill:#a283ef; stroke:none;" d="M182.667 318.333L183.333 318.667L182.667 318.333M214.333 318.667L214.667 319.333L214.333 318.667z"/>
<path style="fill:#e6d8e2; stroke:none;" d="M167 319L168 320L167 319z"/>
<path style="fill:#8b2fff; stroke:none;" d="M168.667 319.333L169.333 319.667L168.667 319.333z"/>
<path style="fill:#a283ef; stroke:none;" d="M179.667 319.333L180.333 319.667L179.667 319.333z"/>
<path style="fill:#e6d8e2; stroke:none;" d="M171 320L171 321L176 321L171 320M214 320L215 321L214 320z"/>
<path style="fill:#a283ef; stroke:none;" d="M215 321L216 322L215 321z"/>
<path style="fill:#e6d8e2; stroke:none;" d="M215 322L216 323L215 322z"/>
<path style="fill:#a283ef; stroke:none;" d="M216.333 323.667L216.667 324.333L216.333 323.667M308.333 324.667L308.667 325.333L308.333 324.667M217.333 325.667L217.667 326.333L217.333 325.667z"/>
<path style="fill:#e6d8e2; stroke:none;" d="M308.333 326.667L308.667 327.333L308.333 326.667z"/>
<path style="fill:#a283ef; stroke:none;" d="M218.333 327.667L218.667 328.333L218.333 327.667M219.333 329.667L219.667 330.333L219.333 329.667z"/>
<path style="fill:#8b2fff; stroke:none;" d="M307.333 330.667L307.667 331.333L307.333 330.667z"/>
<path style="fill:#a283ef; stroke:none;" d="M220 331L221 332L220 331z"/>
<path style="fill:#e6d8e2; stroke:none;" d="M220 332L221 333L220 332z"/>
<path style="fill:#a283ef; stroke:none;" d="M307 332L308 333L307 332M221 333L222 334L221 333z"/>
<path style="fill:#e6d8e2; stroke:none;" d="M307 333L308 334L307 333z"/>
<path style="fill:#a283ef; stroke:none;" d="M222 334L223 335L222 334z"/>
<path style="fill:#e6d8e2; stroke:none;" d="M222 335L223 336L222 335z"/>
<path style="fill:#8b2fff; stroke:none;" d="M306 335L307 336L306 335z"/>
<path style="fill:#a283ef; stroke:none;" d="M223 336L224 337L223 336M306 336L307 337L306 336M224 337L225 338L224 337z"/>
<path style="fill:#e6d8e2; stroke:none;" d="M306 337L307 338L306 337M224 338L225 339L224 338z"/>
<path style="fill:#a283ef; stroke:none;" d="M225 339L226 340L225 339z"/>
<path style="fill:#8b2fff; stroke:none;" d="M305 339L306 340L305 339z"/>
<path style="fill:#a283ef; stroke:none;" d="M226 340L227 341L226 340z"/>
<path style="fill:#e6d8e2; stroke:none;" d="M305 340L306 341L305 340z"/>
<path style="fill:#a283ef; stroke:none;" d="M227 341L228 342L227 341z"/>
<path style="fill:#8b2fff; stroke:none;" d="M304 341L305 342L304 341z"/>
<path style="fill:#a283ef; stroke:none;" d="M228 342L229 343L228 342z"/>
<path style="fill:#e6d8e2; stroke:none;" d="M304 342L305 343L304 342z"/>
<path style="fill:#8b2fff; stroke:none;" d="M229 343L231 345L229 343M303 343L304 344L303 343z"/>
<path style="fill:#e6d8e2; stroke:none;" d="M229 344L230 345L229 344M303.333 344.667L303.667 345.333L303.333 344.667z"/>
<path style="fill:#a283ef; stroke:none;" d="M231 345L232 346L231 345M232 346L233 347L232 346M302 346L303 347L302 346M233 347L234 348L233 347z"/>
<path style="fill:#8b2fff; stroke:none;" d="M301 347L302 348L301 347z"/>
<path style="fill:#a283ef; stroke:none;" d="M234 348L235 349L234 348z"/>
<path style="fill:#e6d8e2; stroke:none;" d="M301 348L302 349L301 348z"/>
<path style="fill:#a283ef; stroke:none;" d="M235 349L236 350L235 349M300 349L301 350L300 349z"/>
<path style="fill:#e6d8e2; stroke:none;" d="M236 350L237 351L236 350z"/>
<path style="fill:#8b2fff; stroke:none;" d="M237 350L238 351L237 350M299 350L298 352L299 350z"/>
<path style="fill:#a283ef; stroke:none;" d="M238 351L239 352L238 351z"/>
<path style="fill:#e6d8e2; stroke:none;" d="M299 351L300 352L299 351M239 352L240 353L239 352M298 352L299 353L298 352M240 353L241 354L240 353z"/>
<path style="fill:#8b2fff; stroke:none;" d="M241 353L242 354L241 353z"/>
<path style="fill:#e6d8e2; stroke:none;" d="M297 353L298 354L297 353M242 354L243 355L242 354z"/>
<path style="fill:#8b2fff; stroke:none;" d="M243 354L244 355L243 354z"/>
<path style="fill:#e6d8e2; stroke:none;" d="M296 354L297 355L296 354z"/>
<path style="fill:#a283ef; stroke:none;" d="M244 355L245 356L244 355z"/>
<path style="fill:#e6d8e2; stroke:none;" d="M295 355L296 356L295 355M245 356L246 357L245 356z"/>
<path style="fill:#8b2fff; stroke:none;" d="M246 356L247 357L246 356z"/>
<path style="fill:#a283ef; stroke:none;" d="M293 356L294 357L293 356z"/>
<path style="fill:#e6d8e2; stroke:none;" d="M294 356L295 357L294 356M247 357L248 358L247 357z"/>
<path style="fill:#a283ef; stroke:none;" d="M248 357L249 358L248 357M292 357L293 358L292 357z"/>
<path style="fill:#e6d8e2; stroke:none;" d="M249 358L250 359L249 358z"/>
<path style="fill:#a283ef; stroke:none;" d="M250 358L251 359L250 358M290 358L291 359L290 358z"/>
<path style="fill:#e6d8e2; stroke:none;" d="M291 358L292 359L291 358M252 359L253 360L252 359z"/>
<path style="fill:#8b2fff; stroke:none;" d="M253 359L254 360L253 359z"/>
<path style="fill:#a283ef; stroke:none;" d="M288.667 359.333L289.333 359.667L288.667 359.333z"/>
<path style="fill:#e6d8e2; stroke:none;" d="M254 360L255 361L254 360z"/>
<path style="fill:#8b2fff; stroke:none;" d="M255.667 360.333L256.333 360.667L255.667 360.333z"/>
<path style="fill:#a283ef; stroke:none;" d="M286.667 360.333L287.333 360.667L286.667 360.333z"/>
<path style="fill:#e6d8e2; stroke:none;" d="M257 361L258 362L257 361z"/>
<path style="fill:#8b2fff; stroke:none;" d="M258.667 361.333L259.333 361.667L258.667 361.333z"/>
<path style="fill:#a283ef; stroke:none;" d="M283.667 361.333L284.333 361.667L283.667 361.333z"/>
<path style="fill:#e6d8e2; stroke:none;" d="M261 362L262 363L261 362z"/>
<path style="fill:#a283ef; stroke:none;" d="M262 362L263 363L262 362z"/>
<path style="fill:#8b2fff; stroke:none;" d="M263 362L264 363L263 362M279 362L280 363L279 362z"/>
<path style="fill:#a283ef; stroke:none;" d="M280.667 362.333L281.333 362.667L280.667 362.333z"/>
<path style="fill:#e6d8e2; stroke:none;" d="M266 363L266 364L269 364L266 363z"/>
<path style="fill:#a283ef; stroke:none;" d="M269 363L269 364L275 364L269 363z"/>
<path style="fill:#e6d8e2; stroke:none;" d="M275.667 363.333L276.333 363.667L275.667 363.333z"/>
</svg>
