<?xml version="1.0" standalone="yes"?>
<svg xmlns="http://www.w3.org/2000/svg" width="343" height="387">
<path style="fill:#010101; stroke:none;" d="M0 0L0 387L343 387L343 0L0 0z"/>
<path style="fill:#e9dce2; stroke:none;" d="M142 53L142 54L145 54L142 53M138.667 54.3333L139.333 54.6667L138.667 54.3333z"/>
<path style="fill:#a382ef; stroke:none;" d="M140.667 54.3333L141.333 54.6667L140.667 54.3333z"/>
<path style="fill:#8b2dff; stroke:none;" d="M142 54L142 55L145 55L142 54z"/>
<path style="fill:#a382ef; stroke:none;" d="M145 54L145 55L148 55L145 54z"/>
<path style="fill:#e9dce2; stroke:none;" d="M148.667 54.3333L149.333 54.6667L148.667 54.3333M151 54L153 56L151 54M135 55L136 56L135 55z"/>
<path style="fill:#a382ef; stroke:none;" d="M136.667 55.3333L137.333 55.6667L136.667 55.3333z"/>
<path style="fill:#6518ff; stroke:none;" d="M111 81C96.8433 72.3028 78.0157 72.4899 71.1327 91C66.7459 102.797 72.0394 113.378 73.6998 125C74.9154 133.508 72.909 142.579 71.7145 151C66.9191 184.807 51.3873 217.075 48.1698 251C47.3892 259.23 50.3428 266.9 50.9105 275C51.9506 289.84 51.2494 304.797 61.3287 317C76.2992 335.125 100.495 336.936 122 341.881C187.585 356.962 286.847 344.552 294.83 261C298.683 220.68 291.91 179.24 289.09 139C287.642 118.341 285.025 91.3704 270.787 75.0146C252.997 54.5793 218.869 70.9484 229 98C222.606 90.9179 222.433 79.9101 216.945 72.0008C206.899 57.5219 178.642 51.2393 167 67C148.882 49.0338 118.865 54.2733 111 81z"/>
<path style="fill:#8b2dff; stroke:none;" d="M150.667 55.3333L151.333 55.6667L150.667 55.3333z"/>
<path style="fill:#e9dce2; stroke:none;" d="M133 56L134 57L133 56z"/>
<path style="fill:#a382ef; stroke:none;" d="M134 56L135 57L134 56z"/>
<path style="fill:#8b2dff; stroke:none;" d="M153 56L154 57L153 56z"/>
<path style="fill:#e9dce2; stroke:none;" d="M154 56L155 57L154 56M131 57L130 59L131 57z"/>
<path style="fill:#a382ef; stroke:none;" d="M132 57L133 58L132 57z"/>
<path style="fill:#8b2dff; stroke:none;" d="M155 57L156 58L155 57z"/>
<path style="fill:#e9dce2; stroke:none;" d="M156 57L157 58L156 57M181 57L181 58L191 58L181 57z"/>
<path style="fill:#a382ef; stroke:none;" d="M131 58L132 59L131 58M157 58L158 59L157 58z"/>
<path style="fill:#e9dce2; stroke:none;" d="M177 58L178 59L177 58z"/>
<path style="fill:#a382ef; stroke:none;" d="M178.667 58.3333L179.333 58.6667L178.667 58.3333z"/>
<path style="fill:#8b2dff; stroke:none;" d="M180 58L181 59L180 58M191 58L191 59L194 59L191 58z"/>
<path style="fill:#a382ef; stroke:none;" d="M194 58L195 59L194 58z"/>
<path style="fill:#e9dce2; stroke:none;" d="M195 58L195 59L198 59L195 58z"/>
<path style="fill:#a382ef; stroke:none;" d="M129 59L130 60L129 59z"/>
<path style="fill:#8b2dff; stroke:none;" d="M158 59L159 60L158 59z"/>
<path style="fill:#e9dce2; stroke:none;" d="M159 59L160 60L159 59M174 59L175 60L174 59z"/>
<path style="fill:#a382ef; stroke:none;" d="M175.667 59.3333L176.333 59.6667L175.667 59.3333z"/>
<path style="fill:#8b2dff; stroke:none;" d="M198 59L199 60L198 59z"/>
<path style="fill:#e9dce2; stroke:none;" d="M199 59L199 60L202 60L199 59z"/>
<path style="fill:#a382ef; stroke:none;" d="M128 60L129 61L128 60M160 60L161 61L160 60M173 60L174 61L173 60z"/>
<path style="fill:#8b2dff; stroke:none;" d="M202 60L203 61L202 60z"/>
<path style="fill:#e9dce2; stroke:none;" d="M203 60L204 61L203 60M126 61L125 63L126 61z"/>
<path style="fill:#a382ef; stroke:none;" d="M127 61L128 62L127 61M161 61L162 62L161 61z"/>
<path style="fill:#e9dce2; stroke:none;" d="M171 61L172 62L171 61z"/>
<path style="fill:#a382ef; stroke:none;" d="M172 61L173 62L172 61z"/>
<path style="fill:#8b2dff; stroke:none;" d="M204 61L205 62L204 61z"/>
<path style="fill:#e9dce2; stroke:none;" d="M205 61L206 62L205 61z"/>
<path style="fill:#8b2dff; stroke:none;" d="M126 62L127 63L126 62z"/>
<path style="fill:#a382ef; stroke:none;" d="M162 62L163 63L162 62M170 62L171 63L170 62z"/>
<path style="fill:#8b2dff; stroke:none;" d="M206 62L207 63L206 62z"/>
<path style="fill:#e9dce2; stroke:none;" d="M207 62L208 63L207 62M124 63L125 64L124 63z"/>
<path style="fill:#a382ef; stroke:none;" d="M163 63L164 64L163 63M169 63L170 64L169 63M208 63L209 64L208 63M123 64L124 65L123 64M164 64L165 65L164 64M168 64L169 65L168 64z"/>
<path style="fill:#8b2dff; stroke:none;" d="M209 64L210 65L209 64z"/>
<path style="fill:#e9dce2; stroke:none;" d="M210 64L211 65L210 64z"/>
<path style="fill:#a382ef; stroke:none;" d="M122 65L123 66L122 65z"/>
<path style="fill:#e9dce2; stroke:none;" d="M165 65L166 66L165 65z"/>
<path style="fill:#a382ef; stroke:none;" d="M167 65L168 66L167 65z"/>
<path style="fill:#e9dce2; stroke:none;" d="M211 65L212 66L211 65M248 65L248 66L252 66L248 65z"/>
<path style="fill:#a382ef; stroke:none;" d="M252.667 65.3333L253.333 65.6667L252.667 65.3333z"/>
<path style="fill:#e9dce2; stroke:none;" d="M254 65L254 66L257 66L254 65M258 65L260 67L258 65M120 66L121 67L120 66z"/>
<path style="fill:#a382ef; stroke:none;" d="M121 66L122 67L121 66M166 66L167 67L166 66M212 66L213 67L212 66z"/>
<path style="fill:#e9dce2; stroke:none;" d="M243.667 66.3333L244.333 66.6667L243.667 66.3333z"/>
<path style="fill:#a382ef; stroke:none;" d="M245.667 66.3333L246.333 66.6667L245.667 66.3333z"/>
<path style="fill:#8b2dff; stroke:none;" d="M247 66L248 67L247 66M257.667 66.3333L258.333 66.6667L257.667 66.3333z"/>
<path style="fill:#e9dce2; stroke:none;" d="M119 67L120 68L119 67z"/>
<path style="fill:#a382ef; stroke:none;" d="M213 67L214 68L213 67z"/>
<path style="fill:#e9dce2; stroke:none;" d="M239 67L240 68L239 67z"/>
<path style="fill:#a382ef; stroke:none;" d="M240.667 67.3333L241.333 67.6667L240.667 67.3333z"/>
<path style="fill:#8b2dff; stroke:none;" d="M242 67L243 68L242 67M260 67L261 68L260 67z"/>
<path style="fill:#a382ef; stroke:none;" d="M261 67L262 68L261 67z"/>
<path style="fill:#e9dce2; stroke:none;" d="M262 67L263 68L262 67z"/>
<path style="fill:#a382ef; stroke:none;" d="M118 68L119 69L118 68M214 68L215 69L214 68z"/>
<path style="fill:#e9dce2; stroke:none;" d="M236 68L237 69L236 68z"/>
<path style="fill:#a382ef; stroke:none;" d="M237 68L238 69L237 68z"/>
<path style="fill:#8b2dff; stroke:none;" d="M238 68L239 69L238 68z"/>
<path style="fill:#a382ef; stroke:none;" d="M263 68L264 69L263 68M117 69L118 70L117 69M215 69L216 70L215 69z"/>
<path style="fill:#e9dce2; stroke:none;" d="M234 69L235 70L234 69z"/>
<path style="fill:#a382ef; stroke:none;" d="M235 69L236 70L235 69z"/>
<path style="fill:#8b2dff; stroke:none;" d="M264 69L265 70L264 69z"/>
<path style="fill:#e9dce2; stroke:none;" d="M265 69L266 70L265 69z"/>
<path style="fill:#a382ef; stroke:none;" d="M116 70L117 71L116 70z"/>
<path style="fill:#e9dce2; stroke:none;" d="M216 70L217 71L216 70z"/>
<path style="fill:#a382ef; stroke:none;" d="M233 70L234 71L233 70M266 70L267 71L266 70z"/>
<path style="fill:#e9dce2; stroke:none;" d="M267 70L271 74L267 70M115 71L116 72L115 71z"/>
<path style="fill:#8b2dff; stroke:none;" d="M216 71L217 72L216 71z"/>
<path style="fill:#a382ef; stroke:none;" d="M232 71L233 72L232 71z"/>
<path style="fill:#8b2dff; stroke:none;" d="M267 71L268 72L267 71z"/>
<path style="fill:#e9dce2; stroke:none;" d="M114 72L113 74L114 72z"/>
<path style="fill:#a382ef; stroke:none;" d="M217 72L218 73L217 72z"/>
<path style="fill:#e9dce2; stroke:none;" d="M230 72L229 74L230 72z"/>
<path style="fill:#a382ef; stroke:none;" d="M231 72L232 73L231 72z"/>
<path style="fill:#8b2dff; stroke:none;" d="M268 72L269 73L268 72z"/>
<path style="fill:#e9dce2; stroke:none;" d="M94.6667 73.3333L95.3333 73.6667L94.6667 73.3333z"/>
<path style="fill:#8b2dff; stroke:none;" d="M114 73L115 74L114 73z"/>
<path style="fill:#e9dce2; stroke:none;" d="M218 73L219 74L218 73z"/>
<path style="fill:#8b2dff; stroke:none;" d="M230 73L231 74L230 73M269 73L270 74L269 73z"/>
<path style="fill:#e9dce2; stroke:none;" d="M88.6667 74.3333L89.3333 74.6667L88.6667 74.3333z"/>
<path style="fill:#a382ef; stroke:none;" d="M90 74L91 75L90 74z"/>
<path style="fill:#8b2dff; stroke:none;" d="M91 74L91 75L94 75L91 74M96.6667 74.3333L97.3333 74.6667L96.6667 74.3333z"/>
<path style="fill:#a382ef; stroke:none;" d="M98 74L99 75L98 74z"/>
<path style="fill:#e9dce2; stroke:none;" d="M99.6667 74.3333L100.333 74.6667L99.6667 74.3333z"/>
<path style="fill:#a382ef; stroke:none;" d="M113 74L114 75L113 74M218 74L219 75L218 74M229 74L230 75L229 74z"/>
<path style="fill:#8b2dff; stroke:none;" d="M270 74L271 75L270 74z"/>
<path style="fill:#e9dce2; stroke:none;" d="M85 75L86 76L85 75z"/>
<path style="fill:#a382ef; stroke:none;" d="M86 75L87 76L86 75z"/>
<path style="fill:#8b2dff; stroke:none;" d="M87 75L88 76L87 75M101 75L102 76L101 75z"/>
<path style="fill:#e9dce2; stroke:none;" d="M102.667 75.3333L103.333 75.6667L102.667 75.3333M112 75L113 76L112 75z"/>
<path style="fill:#a382ef; stroke:none;" d="M219 75L220 76L219 75z"/>
<path style="fill:#e9dce2; stroke:none;" d="M228 75L229 76L228 75z"/>
<path style="fill:#8b2dff; stroke:none;" d="M243.133 76.2562C240.424 77.3307 240.389 80.7103 239.146 82.9105C237.12 86.4956 233.883 88.4119 234.233 93.0008C234.835 100.881 247.003 105.089 253.566 101.637C260.427 98.0278 247.598 74.4846 243.133 76.2562z"/>
<path style="fill:#a382ef; stroke:none;" d="M271 75L272 76L271 75z"/>
<path style="fill:#e9dce2; stroke:none;" d="M83 76L84 77L83 76z"/>
<path style="fill:#a382ef; stroke:none;" d="M84 76L85 77L84 76M104 76L105 77L104 76z"/>
<path style="fill:#e9dce2; stroke:none;" d="M105 76L107 78L105 76z"/>
<path style="fill:#8b2dff; stroke:none;" d="M112 76L113 77L112 76z"/>
<path style="fill:#e9dce2; stroke:none;" d="M220 76L221 77L220 76z"/>
<path style="fill:#8b2dff; stroke:none;" d="M228 76L229 77L228 76z"/>
<path style="fill:#a382ef; stroke:none;" d="M272 76L273 77L272 76z"/>
<path style="fill:#e9dce2; stroke:none;" d="M81 77L80 79L81 77z"/>
<path style="fill:#a382ef; stroke:none;" d="M82 77L83 78L82 77z"/>
<path style="fill:#8b2dff; stroke:none;" d="M105 77L106 78L105 77z"/>
<path style="fill:#e9dce2; stroke:none;" d="M111 77L112 78L111 77z"/>
<path style="fill:#a382ef; stroke:none;" d="M220 77L221 78L220 77z"/>
<path style="fill:#e9dce2; stroke:none;" d="M227.333 77.6667L227.667 78.3333L227.333 77.6667M273 77L274 78L273 77z"/>
<path style="fill:#a382ef; stroke:none;" d="M81 78L82 79L81 78M107 78L108 79L107 78z"/>
<path style="fill:#8b2dff; stroke:none;" d="M111 78L112 79L111 78M220 78L221 79L220 78z"/>
<path style="fill:#a382ef; stroke:none;" d="M273 78L274 79L273 78M79 79L80 80L79 79z"/>
<path style="fill:#8b2dff; stroke:none;" d="M108 79L109 80L108 79z"/>
<path style="fill:#e9dce2; stroke:none;" d="M110 79L111 80L110 79z"/>
<path style="fill:#a382ef; stroke:none;" d="M221.333 79.6667L221.667 80.3333L221.333 79.6667z"/>
<path style="fill:#8b2dff; stroke:none;" d="M227 79L228 80L227 79z"/>
<path style="fill:#a382ef; stroke:none;" d="M274.333 79.6667L274.667 80.3333L274.333 79.6667M78 80L79 81L78 80z"/>
<path style="fill:#8b2dff; stroke:none;" d="M109.667 80.3333L110.333 80.6667L109.667 80.3333z"/>
<path style="fill:#a382ef; stroke:none;" d="M77 81L78 82L77 81z"/>
<path style="fill:#e9dce2; stroke:none;" d="M222 81L223 82L222 81M226.333 81.6667L226.667 82.3333L226.333 81.6667z"/>
<path style="fill:#a382ef; stroke:none;" d="M275.333 81.6667L275.667 82.3333L275.333 81.6667M76 82L77 83L76 82M222.333 82.6667L222.667 83.3333L222.333 82.6667M75 83L76 84L75 83M226 83L226 90L227 90L226 83z"/>
<path style="fill:#e9dce2; stroke:none;" d="M276 83L277 84L276 83z"/>
<path style="fill:#a382ef; stroke:none;" d="M74 84L75 85L74 84M276 84L277 85L276 84z"/>
<path style="fill:#e9dce2; stroke:none;" d="M73 85L74 86L73 85z"/>
<path style="fill:#a382ef; stroke:none;" d="M223.333 85.6667L223.667 86.3333L223.333 85.6667z"/>
<path style="fill:#e9dce2; stroke:none;" d="M277 85L278 86L277 85z"/>
<path style="fill:#8b2dff; stroke:none;" d="M73 86L74 87L73 86z"/>
<path style="fill:#a382ef; stroke:none;" d="M277 86L278 87L277 86z"/>
<path style="fill:#e9dce2; stroke:none;" d="M72 87L73 88L72 87M278 87L279 88L278 87M71 88L72 89L71 88z"/>
<path style="fill:#a382ef; stroke:none;" d="M278.333 88.6667L278.667 89.3333L278.333 88.6667M71 89L72 90L71 89M224.333 89.6667L224.667 90.3333L224.333 89.6667z"/>
<path style="fill:#e9dce2; stroke:none;" d="M70.3333 90.6667L70.6667 91.3333L70.3333 90.6667M226.333 90.6667L226.667 91.3333L226.333 90.6667M279 90L280 91L279 90z"/>
<path style="fill:#a382ef; stroke:none;" d="M279 91L280 92L279 91z"/>
<path style="fill:#8b2dff; stroke:none;" d="M70 92L71 93L70 92M157 100C159.119 104.037 173.224 108.613 177.381 105.728C182.317 102.302 173.548 97.6115 171 97L171 92L157 100z"/>
<path style="fill:#a382ef; stroke:none;" d="M225 92L226 93L225 92z"/>
<path style="fill:#010101; stroke:none;" d="M226 92L227 93L226 92z"/>
<path style="fill:#e9dce2; stroke:none;" d="M280 92L281 93L280 92M69.3333 93.6667L69.6667 94.3333L69.3333 93.6667M226 93L227 94L226 93z"/>
<path style="fill:#8b2dff; stroke:none;" d="M227 93L228 94L227 93z"/>
<path style="fill:#a382ef; stroke:none;" d="M280 93L281 94L280 93M226 94L228 98L229 98L226 94z"/>
<path style="fill:#e9dce2; stroke:none;" d="M281 94L282 95L281 94z"/>
<path style="fill:#8b2dff; stroke:none;" d="M69 95L69 99L70 99L69 95z"/>
<path style="fill:#a382ef; stroke:none;" d="M281 95L282 96L281 95z"/>
<path style="fill:#e9dce2; stroke:none;" d="M282 96L283 97L282 96z"/>
<path style="fill:#8b2dff; stroke:none;" d="M227 97L228 98L227 97z"/>
<path style="fill:#a382ef; stroke:none;" d="M282.333 97.6667L282.667 98.3333L282.333 97.6667M228 99L229 100L228 99z"/>
<path style="fill:#e9dce2; stroke:none;" d="M283 99L284 100L283 99z"/>
<path style="fill:#a382ef; stroke:none;" d="M283 100L284 101L283 100M229 101L232 104L229 101z"/>
<path style="fill:#e9dce2; stroke:none;" d="M284 102L285 103L284 102z"/>
<path style="fill:#a382ef; stroke:none;" d="M284 103L285 104L284 103z"/>
<path style="fill:#e9dce2; stroke:none;" d="M231 104L232 105L231 104z"/>
<path style="fill:#8b2dff; stroke:none;" d="M232 104L233 105L232 104M284 104L285 105L284 104M69 105L70 106L69 105z"/>
<path style="fill:#a382ef; stroke:none;" d="M231.333 105.667L231.667 106.333L231.333 105.667z"/>
<path style="fill:#010101; stroke:none;" d="M232 105L239 124L240 124C239.994 115.388 238.616 110.77 232 105z"/>
<path style="fill:#a382ef; stroke:none;" d="M69 106L69 109L70 109L69 106z"/>
<path style="fill:#e9dce2; stroke:none;" d="M233 106L234 107L233 106M234 107L235 108L234 107M285 107L286 108L285 107z"/>
<path style="fill:#a382ef; stroke:none;" d="M232 108L233 109L232 108z"/>
<path style="fill:#e9dce2; stroke:none;" d="M235 108L236 109L235 108z"/>
<path style="fill:#8b2dff; stroke:none;" d="M236 108L237 109L236 108z"/>
<path style="fill:#a382ef; stroke:none;" d="M285 108L285 112L286 112L285 108z"/>
<path style="fill:#e9dce2; stroke:none;" d="M69 109L69 112L70 112L69 109z"/>
<path style="fill:#8b2dff; stroke:none;" d="M237 109L238 110L237 109z"/>
<path style="fill:#a382ef; stroke:none;" d="M233.333 110.667L233.667 111.333L233.333 110.667M238 110L239 111L238 110z"/>
<path style="fill:#8b2dff; stroke:none;" d="M70 111L71 112L70 111z"/>
<path style="fill:#a382ef; stroke:none;" d="M70 112L71 113L70 112M239.333 112.667L239.667 113.333L239.333 112.667z"/>
<path style="fill:#8b2dff; stroke:none;" d="M285.333 112.667L285.667 113.333L285.333 112.667z"/>
<path style="fill:#e9dce2; stroke:none;" d="M70.3333 113.667L70.6667 114.333L70.3333 113.667z"/>
<path style="fill:#a382ef; stroke:none;" d="M234.333 113.667L234.667 114.333L234.333 113.667z"/>
<path style="fill:#8b2dff; stroke:none;" d="M157 114L154.012 127.723L147.289 130.137L140 137L140 138L147 140L156 156L120 158C121.033 171.084 122.63 183.782 122.026 197C121.821 201.502 119.194 208.386 122.028 212.501C126.301 218.705 137.918 218.044 144 221.353C155.947 227.853 167.922 243.602 173.185 256C175.294 260.968 180.763 276.716 172.856 279.494C169.194 280.78 165.858 277.214 162.225 279.761C156.549 283.739 152.995 303.548 154.398 310C156.409 319.247 165.325 321.18 173 323.67C201.143 332.799 216.968 315.219 241 304.139C248.615 300.628 256.604 305.983 263.907 299.656C274.829 290.192 278.521 263.806 271.431 251.133C268.131 245.234 259.716 245.247 259.359 237C258.722 222.296 267.875 217.299 272.272 205C277.198 191.221 268.44 176.369 256 171C260.302 158.699 270.823 167.771 275.821 158.891C280.939 149.799 272.729 135.113 274 125L266 128L265 146L264 146L256 138C252.937 142.227 247.713 144.323 249 150C245.587 149.027 241.81 146.74 238.17 147.321C228.803 148.815 222.356 156.482 219 142C223.494 139.909 227.128 131.969 219.035 132.658C215.49 132.96 213.923 136.724 210.816 137.893C206.846 139.386 200.242 138.201 196 138C196.573 139.989 198.268 142.152 198.467 144.171C198.967 149.244 193.056 151.626 189 151.201C177.264 149.974 174.277 140.524 165 136C170.192 128.125 164.986 118.08 157 114z"/>
<path style="fill:#e9dce2; stroke:none;" d="M239 114L240 115L239 114z"/>
<path style="fill:#a382ef; stroke:none;" d="M71.3333 115.667L71.6667 116.333L71.3333 115.667z"/>
<path style="fill:#e9dce2; stroke:none;" d="M235 115L236 116L235 115z"/>
<path style="fill:#a382ef; stroke:none;" d="M240 115L241 116L240 115z"/>
<path style="fill:#e9dce2; stroke:none;" d="M286.333 115.667L286.667 116.333L286.333 115.667z"/>
<path style="fill:#a382ef; stroke:none;" d="M182 116L183 117L182 116M235 116L236 117L235 116z"/>
<path style="fill:#8b2dff; stroke:none;" d="M240 116L240 119L241 119L240 116z"/>
<path style="fill:#e9dce2; stroke:none;" d="M71.3333 117.667L71.6667 118.333L71.3333 117.667z"/>
<path style="fill:#8b2dff; stroke:none;" d="M129 124C128.506 108.969 113.529 126.917 114.752 130.617C116.99 137.393 142.476 128.097 129 124M235 117L236 118L235 117z"/>
<path style="fill:#a382ef; stroke:none;" d="M286.333 117.667L286.667 118.333L286.333 117.667z"/>
<path style="fill:#e9dce2; stroke:none;" d="M236 118L237 119L236 118z"/>
<path style="fill:#a382ef; stroke:none;" d="M72.3333 119.667L72.6667 120.333L72.3333 119.667M236 119L237 120L236 119M240 119L240 123L241 123L240 119z"/>
<path style="fill:#e9dce2; stroke:none;" d="M287 120L288 121L287 120M72.3333 121.667L72.6667 122.333L72.3333 121.667z"/>
<path style="fill:#a382ef; stroke:none;" d="M237 121L238 122L237 121M287 121L287 124L288 124L287 121M73 123L73 126L74 126L73 123M238 123L239 124L238 123z"/>
<path style="fill:#e9dce2; stroke:none;" d="M240.333 123.667L240.667 124.333L240.333 123.667z"/>
<path style="fill:#8b2dff; stroke:none;" d="M96 134L91 136L91 138L109 138C107.444 134.414 105.218 127.855 101.857 125.662C96.2114 121.978 95.3278 130.529 96 134z"/>
<path style="fill:#a382ef; stroke:none;" d="M239 124L240 125L239 124M240 125L241 126L240 125z"/>
<path style="fill:#e9dce2; stroke:none;" d="M288.333 125.667L288.667 126.333L288.333 125.667M73 126L73 135L74 135L73 126z"/>
<path style="fill:#a382ef; stroke:none;" d="M288 127L288 130L289 130L288 127z"/>
<path style="fill:#8b2dff; stroke:none;" d="M288 130L289 131L288 130z"/>
<path style="fill:#e9dce2; stroke:none;" d="M289 133L289 136L290 136L289 133z"/>
<path style="fill:#a382ef; stroke:none;" d="M73 135L74 136L73 135z"/>
<path style="fill:#e9dce2; stroke:none;" d="M72 136L73 137L72 136z"/>
<path style="fill:#8b2dff; stroke:none;" d="M73.3333 136.667L73.6667 137.333L73.3333 136.667z"/>
<path style="fill:#a382ef; stroke:none;" d="M289 136L289 140L290 140L289 136z"/>
<path style="fill:#e9dce2; stroke:none;" d="M72 138L72 142L73 142L72 138z"/>
<path style="fill:#8b2dff; stroke:none;" d="M289 140L289 143L290 143L289 140z"/>
<path style="fill:#a382ef; stroke:none;" d="M72 142L73 143L72 142z"/>
<path style="fill:#e9dce2; stroke:none;" d="M71 143L71 150L72 150L71 143z"/>
<path style="fill:#8b2dff; stroke:none;" d="M72.3333 143.667L72.6667 144.333L72.3333 143.667z"/>
<path style="fill:#e9dce2; stroke:none;" d="M290 147L290 152L291 152L290 147z"/>
<path style="fill:#a382ef; stroke:none;" d="M71 150L72 151L71 150z"/>
<path style="fill:#8b2dff; stroke:none;" d="M98.1551 151.176C95.2602 151.681 94.4106 157.759 93.6667 160C90.6755 169.01 89.4347 177.637 88.2847 187C86.8572 198.623 83.8931 210.331 83.0895 222C82.4669 231.041 83.8736 240.152 81.2145 249C77.9335 259.917 68.316 268.346 66.3295 280C64.8907 288.441 70.4301 303.35 81 301.756C85.1163 301.135 87.2854 297.54 91 296.232C94.6793 294.937 98.1491 297.231 101.815 294.907C116.213 285.775 106.685 268.027 106.394 256C106.226 249.057 108.406 242.19 107.91 235C107.258 225.525 104.416 216.616 105.09 207C105.544 200.515 108.138 194.426 108.826 188C110.014 176.916 108.178 168.685 103.055 159C102.088 157.172 101.067 150.668 98.1551 151.176M71.3333 151.667L71.6667 152.333L71.3333 151.667z"/>
<path style="fill:#a382ef; stroke:none;" d="M290 152L290 156L291 156L290 152z"/>
<path style="fill:#e9dce2; stroke:none;" d="M70 153L70 156L71 156L70 153z"/>
<path style="fill:#a382ef; stroke:none;" d="M70 156L71 157L70 156z"/>
<path style="fill:#8b2dff; stroke:none;" d="M290 156L290 159L291 159L290 156M70 157L71 158L70 157z"/>
<path style="fill:#6518ff; stroke:none;" d="M180 159L180 160L198 161C195.7 154.07 185.286 157.324 180 159z"/>
<path style="fill:#e9dce2; stroke:none;" d="M291 157L292 158L291 157M69 158L69 161L70 161L69 158M291 159L291 165L292 165L291 159z"/>
<path style="fill:#8b2dff; stroke:none;" d="M69 161L70 162L69 161z"/>
<path style="fill:#e9dce2; stroke:none;" d="M68.3333 162.667L68.6667 163.333L68.3333 162.667z"/>
<path style="fill:#8b2dff; stroke:none;" d="M68.3333 164.667L68.6667 165.333L68.3333 164.667z"/>
<path style="fill:#e9dce2; stroke:none;" d="M67 165L67 168L68 168L67 165z"/>
<path style="fill:#a382ef; stroke:none;" d="M291 165L291 169L292 169L291 165z"/>
<path style="fill:#8b2dff; stroke:none;" d="M67.3333 168.667L67.6667 169.333L67.3333 168.667M291.333 169.667L291.667 170.333L291.333 169.667z"/>
<path style="fill:#e9dce2; stroke:none;" d="M66.3333 170.667L66.6667 171.333L66.3333 170.667M292 171L292 176L293 176L292 171z"/>
<path style="fill:#a382ef; stroke:none;" d="M66 172L67 173L66 172z"/>
<path style="fill:#8b2dff; stroke:none;" d="M66 173L67 174L66 173z"/>
<path style="fill:#e9dce2; stroke:none;" d="M65.3333 174.667L65.6667 175.333L65.3333 174.667z"/>
<path style="fill:#a382ef; stroke:none;" d="M65 176L66 177L65 176M292 176L292 179L293 179L292 176z"/>
<path style="fill:#8b2dff; stroke:none;" d="M65 177L66 178L65 177z"/>
<path style="fill:#e9dce2; stroke:none;" d="M64 178L63 185L64 185L64 178z"/>
<path style="fill:#8b2dff; stroke:none;" d="M292.333 179.667L292.667 180.333L292.333 179.667M64.3333 181.667L64.6667 182.333L64.3333 181.667z"/>
<path style="fill:#e9dce2; stroke:none;" d="M293 184L293 187L294 187L293 184z"/>
<path style="fill:#8b2dff; stroke:none;" d="M63.3333 185.667L63.6667 186.333L63.3333 185.667z"/>
<path style="fill:#e9dce2; stroke:none;" d="M62.3333 187.667L62.6667 188.333L62.3333 187.667z"/>
<path style="fill:#a382ef; stroke:none;" d="M293 187L293 191L294 191L293 187M62 189L63 190L62 189z"/>
<path style="fill:#8b2dff; stroke:none;" d="M62 190L63 191L62 190z"/>
<path style="fill:#e9dce2; stroke:none;" d="M61.3333 191.667L61.6667 192.333L61.3333 191.667z"/>
<path style="fill:#8b2dff; stroke:none;" d="M293 191L293 194L294 194L293 191z"/>
<path style="fill:#a382ef; stroke:none;" d="M61 193L62 194L61 193z"/>
<path style="fill:#8b2dff; stroke:none;" d="M61 194L62 195L61 194z"/>
<path style="fill:#e9dce2; stroke:none;" d="M60 195L60 198L61 198L60 195M294 196L294 201L295 201L294 196z"/>
<path style="fill:#8b2dff; stroke:none;" d="M60.3333 198.667L60.6667 199.333L60.3333 198.667z"/>
<path style="fill:#e9dce2; stroke:none;" d="M59 199L59 202L60 202L59 199z"/>
<path style="fill:#a382ef; stroke:none;" d="M294 201L294 206L295 206L294 201z"/>
<path style="fill:#8b2dff; stroke:none;" d="M59.3333 202.667L59.6667 203.333L59.3333 202.667z"/>
<path style="fill:#e9dce2; stroke:none;" d="M58.3333 204.667L58.6667 205.333L58.3333 204.667z"/>
<path style="fill:#8b2dff; stroke:none;" d="M58.3333 206.667L58.6667 207.333L58.3333 206.667M294 206L294 210L295 210L294 206z"/>
<path style="fill:#e9dce2; stroke:none;" d="M295 207L295 219L296 219L295 207M57 208L56 214L57 214L57 208z"/>
<path style="fill:#8b2dff; stroke:none;" d="M57.3333 210.667L57.6667 211.333L57.3333 210.667M56 214L57 215L56 214z"/>
<path style="fill:#e9dce2; stroke:none;" d="M55.3333 215.667L55.6667 216.333L55.3333 215.667z"/>
<path style="fill:#8b2dff; stroke:none;" d="M55.3333 217.667L55.6667 218.333L55.3333 217.667z"/>
<path style="fill:#e9dce2; stroke:none;" d="M54.3333 218.667L54.6667 219.333L54.3333 218.667z"/>
<path style="fill:#a382ef; stroke:none;" d="M295 219L295 225L296 225L295 219z"/>
<path style="fill:#8b2dff; stroke:none;" d="M54.3333 220.667L54.6667 221.333L54.3333 220.667z"/>
<path style="fill:#6518ff; stroke:none;" d="M193 280C201.983 277.277 206.855 268.115 212.155 261.001C217.429 253.922 227.984 249.575 231.972 241.961C239.563 227.469 226.663 216.22 213 222.213C190.235 232.198 187.181 259.598 193 280z"/>
<path style="fill:#e9dce2; stroke:none;" d="M53 221L53 224L54 224L53 221z"/>
<path style="fill:#8b2dff; stroke:none;" d="M53 224L54 225L53 224z"/>
<path style="fill:#e9dce2; stroke:none;" d="M52.3333 225.667L52.6667 226.333L52.3333 225.667z"/>
<path style="fill:#8b2dff; stroke:none;" d="M295 225L295 232L296 232L295 225z"/>
<path style="fill:#e9dce2; stroke:none;" d="M296 225L296 254L297 254L296 225z"/>
<path style="fill:#8b2dff; stroke:none;" d="M52.3333 227.667L52.6667 228.333L52.3333 227.667z"/>
<path style="fill:#e9dce2; stroke:none;" d="M51 228L51 231L52 231L51 228z"/>
<path style="fill:#8b2dff; stroke:none;" d="M51 231L52 232L51 231z"/>
<path style="fill:#e9dce2; stroke:none;" d="M50.3333 232.667L50.6667 233.333L50.3333 232.667z"/>
<path style="fill:#a382ef; stroke:none;" d="M50 234L51 235L50 234z"/>
<path style="fill:#8b2dff; stroke:none;" d="M50 235L51 236L50 235z"/>
<path style="fill:#e9dce2; stroke:none;" d="M49 236L48 244L49 244L49 236z"/>
<path style="fill:#8b2dff; stroke:none;" d="M49.3333 239.667L49.6667 240.333L49.3333 239.667z"/>
<path style="fill:#a382ef; stroke:none;" d="M48.3333 244.667L48.6667 245.333L48.3333 244.667z"/>
<path style="fill:#8b2dff; stroke:none;" d="M48 246L48 249L49 249L48 246M295 246L295 254L296 254L295 246z"/>
<path style="fill:#e9dce2; stroke:none;" d="M47 247L47 261L48 261L47 247z"/>
<path style="fill:#6518ff; stroke:none;" d="M95 247C93.2072 250.572 88.0562 266.313 94.2207 268.248C96.8073 269.061 98.826 265.726 99.9807 263.981C104.541 257.087 100.88 253.139 97 247L95 247z"/>
<path style="fill:#a382ef; stroke:none;" d="M295 254L295 257L296 257L295 254z"/>
<path style="fill:#e9dce2; stroke:none;" d="M295 257L295 264L296 264L295 257z"/>
<path style="fill:#8b2dff; stroke:none;" d="M48 260L49 261L48 260z"/>
<path style="fill:#a382ef; stroke:none;" d="M48 261L48 264L49 264L48 261z"/>
<path style="fill:#8b2dff; stroke:none;" d="M294.333 263.667L294.667 264.333L294.333 263.667z"/>
<path style="fill:#e9dce2; stroke:none;" d="M48 264L48 267L49 267L48 264z"/>
<path style="fill:#a382ef; stroke:none;" d="M294 265L295 266L294 265z"/>
<path style="fill:#8b2dff; stroke:none;" d="M49 266L50 267L49 266z"/>
<path style="fill:#e9dce2; stroke:none;" d="M294 266L294 270L295 270L294 266z"/>
<path style="fill:#a382ef; stroke:none;" d="M49.3333 267.667L49.6667 268.333L49.3333 267.667z"/>
<path style="fill:#e9dce2; stroke:none;" d="M49 269L49 272L50 272L49 269z"/>
<path style="fill:#8b2dff; stroke:none;" d="M293.333 270.667L293.667 271.333L293.333 270.667M50 271L51 272L50 271z"/>
<path style="fill:#a382ef; stroke:none;" d="M50 272L50 276L51 276L50 272z"/>
<path style="fill:#e9dce2; stroke:none;" d="M293 272L293 275L294 275L293 272z"/>
<path style="fill:#8b2dff; stroke:none;" d="M292 275L293 276L292 275z"/>
<path style="fill:#e9dce2; stroke:none;" d="M50 276L50 290L51 290L50 276M292 276L292 279L293 279L292 276z"/>
<path style="fill:#8b2dff; stroke:none;" d="M291 279L292 280L291 279z"/>
<path style="fill:#e9dce2; stroke:none;" d="M291.333 280.667L291.667 281.333L291.333 280.667z"/>
<path style="fill:#8b2dff; stroke:none;" d="M290 282L291 283L290 282z"/>
<path style="fill:#e9dce2; stroke:none;" d="M290 283L291 284L290 283z"/>
<path style="fill:#8b2dff; stroke:none;" d="M289 285L290 286L289 285M51 286L51 290L52 290L51 286z"/>
<path style="fill:#e9dce2; stroke:none;" d="M289.333 286.667L289.667 287.333L289.333 286.667z"/>
<path style="fill:#8b2dff; stroke:none;" d="M288 288L289 289L288 288z"/>
<path style="fill:#e9dce2; stroke:none;" d="M288 289L289 290L288 289z"/>
<path style="fill:#a382ef; stroke:none;" d="M51 290L51 294L52 294L51 290z"/>
<path style="fill:#8b2dff; stroke:none;" d="M287 290L288 291L287 290z"/>
<path style="fill:#e9dce2; stroke:none;" d="M287 291L288 292L287 291z"/>
<path style="fill:#8b2dff; stroke:none;" d="M286 292L287 293L286 292z"/>
<path style="fill:#e9dce2; stroke:none;" d="M286 293L287 294L286 293M51 294L51 298L52 298L51 294z"/>
<path style="fill:#8b2dff; stroke:none;" d="M285 294L286 295L285 294z"/>
<path style="fill:#e9dce2; stroke:none;" d="M285 295L286 296L285 295z"/>
<path style="fill:#8b2dff; stroke:none;" d="M284 296L285 297L284 296M52 297L53 298L52 297z"/>
<path style="fill:#e9dce2; stroke:none;" d="M284 297L285 298L284 297z"/>
<path style="fill:#a382ef; stroke:none;" d="M52.3333 298.667L52.6667 299.333L52.3333 298.667M162 298L162 300L164 300L162 298z"/>
<path style="fill:#8b2dff; stroke:none;" d="M283 298L284 299L283 298z"/>
<path style="fill:#e9dce2; stroke:none;" d="M283 299L284 300L283 299M52.3333 300.667L52.6667 301.333L52.3333 300.667z"/>
<path style="fill:#a382ef; stroke:none;" d="M282 300L283 301L282 300z"/>
<path style="fill:#8b2dff; stroke:none;" d="M281 301L282 302L281 301z"/>
<path style="fill:#a382ef; stroke:none;" d="M53.3333 302.667L53.6667 303.333L53.3333 302.667z"/>
<path style="fill:#e9dce2; stroke:none;" d="M281 302L282 303L281 302z"/>
<path style="fill:#a382ef; stroke:none;" d="M280 303L281 304L280 303z"/>
<path style="fill:#e9dce2; stroke:none;" d="M53 304L54 305L53 304z"/>
<path style="fill:#a382ef; stroke:none;" d="M279 304L280 305L279 304M54 305L56 311L57 311L54 305z"/>
<path style="fill:#8b2dff; stroke:none;" d="M278 305L279 306L278 305z"/>
<path style="fill:#e9dce2; stroke:none;" d="M278 306L279 307L278 306M54 307L55 308L54 307M277 307L278 308L277 307z"/>
<path style="fill:#a382ef; stroke:none;" d="M276 308L277 309L276 308z"/>
<path style="fill:#e9dce2; stroke:none;" d="M55 309L56 310L55 309z"/>
<path style="fill:#a382ef; stroke:none;" d="M275 309L276 310L275 309M274 310L275 311L274 310M57 311L58 312L57 311z"/>
<path style="fill:#8b2dff; stroke:none;" d="M273 311L271 314L273 311z"/>
<path style="fill:#e9dce2; stroke:none;" d="M57 312L58 313L57 312M273 312L274 313L273 312z"/>
<path style="fill:#a382ef; stroke:none;" d="M58 313L59 314L58 313z"/>
<path style="fill:#e9dce2; stroke:none;" d="M272 313L273 314L272 313z"/>
<path style="fill:#a382ef; stroke:none;" d="M59 314L60 315L59 314M270 314L271 315L270 314z"/>
<path style="fill:#e9dce2; stroke:none;" d="M59 315L60 316L59 315z"/>
<path style="fill:#a382ef; stroke:none;" d="M269 315L270 316L269 315z"/>
<path style="fill:#e9dce2; stroke:none;" d="M60 316L61 317L60 316z"/>
<path style="fill:#a382ef; stroke:none;" d="M268 316L269 317L268 316M61 317L62 318L61 317M267 317L268 318L267 317M62 318L63 319L62 318M266 318L267 319L266 318M63 319L64 320L63 319M264 319L265 320L264 319M64 320L65 321L64 320M263 320L264 321L263 320M65 321L66 322L65 321M262 321L263 322L262 321M66 322L67 323L66 322M260 322L261 323L260 322z"/>
<path style="fill:#e9dce2; stroke:none;" d="M261 322L262 323L261 322z"/>
<path style="fill:#a382ef; stroke:none;" d="M67 323L68 324L67 323M259 323L260 324L259 323z"/>
<path style="fill:#e9dce2; stroke:none;" d="M68 324L69 325L68 324z"/>
<path style="fill:#a382ef; stroke:none;" d="M257 324L258 325L257 324z"/>
<path style="fill:#e9dce2; stroke:none;" d="M69 325L72 328L69 325z"/>
<path style="fill:#8b2dff; stroke:none;" d="M70 325L71 326L70 325z"/>
<path style="fill:#a382ef; stroke:none;" d="M256 325L257 326L256 325z"/>
<path style="fill:#8b2dff; stroke:none;" d="M71 326L72 327L71 326z"/>
<path style="fill:#a382ef; stroke:none;" d="M254 326L255 327L254 326M72 327L73 328L72 327M253 327L254 328L253 327z"/>
<path style="fill:#e9dce2; stroke:none;" d="M73 328L75 330L73 328z"/>
<path style="fill:#8b2dff; stroke:none;" d="M74 328L75 329L74 328z"/>
<path style="fill:#a382ef; stroke:none;" d="M251 328L252 329L251 328M75 329L76 330L75 329M249 329L250 330L249 329z"/>
<path style="fill:#e9dce2; stroke:none;" d="M76 330L77 331L76 330z"/>
<path style="fill:#8b2dff; stroke:none;" d="M77 330L78 331L77 330z"/>
<path style="fill:#a382ef; stroke:none;" d="M247 330L248 331L247 330z"/>
<path style="fill:#e9dce2; stroke:none;" d="M78 331L79 332L78 331z"/>
<path style="fill:#8b2dff; stroke:none;" d="M79 331L80 332L79 331z"/>
<path style="fill:#a382ef; stroke:none;" d="M245 331L246 332L245 331z"/>
<path style="fill:#e9dce2; stroke:none;" d="M246 331L247 332L246 331M81 332L82 333L81 332z"/>
<path style="fill:#8b2dff; stroke:none;" d="M82 332L83 333L82 332z"/>
<path style="fill:#a382ef; stroke:none;" d="M243 332L244 333L243 332z"/>
<path style="fill:#e9dce2; stroke:none;" d="M83 333L84 334L83 333z"/>
<path style="fill:#8b2dff; stroke:none;" d="M84.6667 333.333L85.3333 333.667L84.6667 333.333z"/>
<path style="fill:#a382ef; stroke:none;" d="M241 333L242 334L241 333z"/>
<path style="fill:#e9dce2; stroke:none;" d="M242 333L243 334L242 333M86.6667 334.333L87.3333 334.667L86.6667 334.333z"/>
<path style="fill:#8b2dff; stroke:none;" d="M88.6667 334.333L89.3333 334.667L88.6667 334.333z"/>
<path style="fill:#a382ef; stroke:none;" d="M239 334L240 335L239 334z"/>
<path style="fill:#e9dce2; stroke:none;" d="M91.6667 335.333L92.3333 335.667L91.6667 335.333z"/>
<path style="fill:#8b2dff; stroke:none;" d="M93.6667 335.333L94.3333 335.667L93.6667 335.333z"/>
<path style="fill:#a382ef; stroke:none;" d="M237 335L238 336L237 335z"/>
<path style="fill:#e9dce2; stroke:none;" d="M238 335L239 336L238 335M96 336L97 337L96 336z"/>
<path style="fill:#a382ef; stroke:none;" d="M97 336L98 337L97 336z"/>
<path style="fill:#8b2dff; stroke:none;" d="M98.6667 336.333L99.3333 336.667L98.6667 336.333z"/>
<path style="fill:#a382ef; stroke:none;" d="M234.667 336.333L235.333 336.667L234.667 336.333z"/>
<path style="fill:#e9dce2; stroke:none;" d="M100.667 337.333L101.333 337.667L100.667 337.333z"/>
<path style="fill:#a382ef; stroke:none;" d="M102 337L103 338L102 337z"/>
<path style="fill:#8b2dff; stroke:none;" d="M103 337L104 338L103 337z"/>
<path style="fill:#a382ef; stroke:none;" d="M232 337L233 338L232 337z"/>
<path style="fill:#e9dce2; stroke:none;" d="M105 338L106 339L105 338z"/>
<path style="fill:#a382ef; stroke:none;" d="M106 338L107 339L106 338z"/>
<path style="fill:#8b2dff; stroke:none;" d="M107 338L108 339L107 338z"/>
<path style="fill:#a382ef; stroke:none;" d="M229.667 338.333L230.333 338.667L229.667 338.333z"/>
<path style="fill:#e9dce2; stroke:none;" d="M109.667 339.333L110.333 339.667L109.667 339.333z"/>
<path style="fill:#8b2dff; stroke:none;" d="M111 339L112 340L111 339z"/>
<path style="fill:#a382ef; stroke:none;" d="M227 339L228 340L227 339z"/>
<path style="fill:#e9dce2; stroke:none;" d="M228 339L229 340L228 339M113.667 340.333L114.333 340.667L113.667 340.333z"/>
<path style="fill:#8b2dff; stroke:none;" d="M115 340L116 341L115 340z"/>
<path style="fill:#a382ef; stroke:none;" d="M224.667 340.333L225.333 340.667L224.667 340.333z"/>
<path style="fill:#e9dce2; stroke:none;" d="M226 340L227 341L226 340M117.667 341.333L118.333 341.667L117.667 341.333z"/>
<path style="fill:#8b2dff; stroke:none;" d="M119.667 341.333L120.333 341.667L119.667 341.333z"/>
<path style="fill:#a382ef; stroke:none;" d="M221.667 341.333L222.333 341.667L221.667 341.333z"/>
<path style="fill:#e9dce2; stroke:none;" d="M122 342L123 343L122 342z"/>
<path style="fill:#a382ef; stroke:none;" d="M123 342L124 343L123 342z"/>
<path style="fill:#8b2dff; stroke:none;" d="M124 342L125 343L124 342z"/>
<path style="fill:#a382ef; stroke:none;" d="M218.667 342.333L219.333 342.667L218.667 342.333z"/>
<path style="fill:#e9dce2; stroke:none;" d="M126.667 343.333L127.333 343.667L126.667 343.333z"/>
<path style="fill:#a382ef; stroke:none;" d="M128 343L129 344L128 343z"/>
<path style="fill:#8b2dff; stroke:none;" d="M129 343L130 344L129 343z"/>
<path style="fill:#a382ef; stroke:none;" d="M215 343L216 344L215 343z"/>
<path style="fill:#e9dce2; stroke:none;" d="M216 343L217 344L216 343M131.667 344.333L132.333 344.667L131.667 344.333z"/>
<path style="fill:#8b2dff; stroke:none;" d="M133.667 344.333L134.333 344.667L133.667 344.333M211 344L212 345L211 344z"/>
<path style="fill:#a382ef; stroke:none;" d="M212 344L213 345L212 344z"/>
<path style="fill:#e9dce2; stroke:none;" d="M213.667 344.333L214.333 344.667L213.667 344.333M136.667 345.333L137.333 345.667L136.667 345.333z"/>
<path style="fill:#a382ef; stroke:none;" d="M138 345L139 346L138 345z"/>
<path style="fill:#8b2dff; stroke:none;" d="M139.667 345.333L140.333 345.667L139.667 345.333z"/>
<path style="fill:#a382ef; stroke:none;" d="M207.667 345.333L208.333 345.667L207.667 345.333z"/>
<path style="fill:#e9dce2; stroke:none;" d="M209 345L210 346L209 345M141 346L141 347L144 347L141 346z"/>
<path style="fill:#a382ef; stroke:none;" d="M144.667 346.333L145.333 346.667L144.667 346.333z"/>
<path style="fill:#8b2dff; stroke:none;" d="M146.667 346.333L147.333 346.667L146.667 346.333M202 346L203 347L202 346z"/>
<path style="fill:#a382ef; stroke:none;" d="M203.667 346.333L204.333 346.667L203.667 346.333z"/>
<path style="fill:#e9dce2; stroke:none;" d="M150.667 347.333L151.333 347.667L150.667 347.333z"/>
<path style="fill:#a382ef; stroke:none;" d="M152.667 347.333L153.333 347.667L152.667 347.333z"/>
<path style="fill:#8b2dff; stroke:none;" d="M154 347L154 348L157 348L154 347z"/>
<path style="fill:#a382ef; stroke:none;" d="M197 347L197 348L200 348L197 347z"/>
<path style="fill:#e9dce2; stroke:none;" d="M160 348L160 349L165 349L160 348z"/>
<path style="fill:#a382ef; stroke:none;" d="M165 348L165 349L168 349L165 348z"/>
<path style="fill:#8b2dff; stroke:none;" d="M168 348L168 349L184 349L168 348z"/>
<path style="fill:#a382ef; stroke:none;" d="M184 348L184 349L190 349L184 348z"/>
<path style="fill:#e9dce2; stroke:none;" d="M190 348L190 349L193 349L190 348M196 348L197 349L196 348M174 349L174 350L181 350L174 349M182.667 349.333L183.333 349.667L182.667 349.333z"/>
</svg>
