<?xml version="1.0" standalone="yes"?>
<svg xmlns="http://www.w3.org/2000/svg" width="367" height="395">
<path style="fill:#010101; stroke:none;" d="M0 0L0 395L367 395L367 0L0 0z"/>
<path style="fill:#e2d3e2; stroke:none;" d="M169 26L169 27L173 28L173 27L169 26M161.667 27.3333L162.333 27.6667L161.667 27.3333z"/>
<path style="fill:#a96bf6; stroke:none;" d="M163.667 27.3333L164.333 27.6667L163.667 27.3333z"/>
<path style="fill:#8c2fff; stroke:none;" d="M165 27L165 28L171 28L165 27z"/>
<path style="fill:#e2d3e2; stroke:none;" d="M159 28L160 29L159 28z"/>
<path style="fill:#a96bf6; stroke:none;" d="M160 28L161 29L160 28z"/>
<path style="fill:#6718ff; stroke:none;" d="M145 51C130.819 45.1053 114.78 43.6569 105.479 59.0008C101.076 66.2645 101.503 74.9381 99.7894 83C97.7181 92.7433 93.2629 101.892 93.0147 112C92.8273 119.627 95.42 130.848 93.3079 138C91.1255 145.389 83.1457 151.609 80.0147 159C68.7484 185.596 63.8049 216.693 70.5031 245C77.6876 275.363 102.291 302.721 132 312.254C149.868 317.987 168.468 318 187 318C219.186 318 255.219 310.793 279.985 288.711C309.539 262.36 309.423 213.324 311.91 177C312.827 163.617 310.865 149.132 313.975 136C316.674 124.6 325.384 114.503 321.695 102C317.821 88.8678 297.833 77.9585 285.015 85.1396C279.828 88.0457 276.458 94.8037 274 100L273 100C274.535 92.5645 279.447 82.5394 277.358 75C271.916 55.3573 245.793 52.5153 233 65C233 59.9358 233.928 53.7824 231.991 49C227.509 37.9327 211.839 32.0532 201 36.483C194.548 39.1197 190.563 45.0464 186 50C184.907 36.264 173.411 20.3492 158.039 30.1482C151.391 34.386 147.113 43.6636 145 51z"/>
<path style="fill:#8c2fff; stroke:none;" d="M173.667 28.3333L174.333 28.6667L173.667 28.3333z"/>
<path style="fill:#e2d3e2; stroke:none;" d="M175 28L176 29L175 28z"/>
<path style="fill:#a96bf6; stroke:none;" d="M158 29L159 30L158 29z"/>
<path style="fill:#8c2fff; stroke:none;" d="M176 29L177 30L176 29z"/>
<path style="fill:#e2d3e2; stroke:none;" d="M177 29L178 30L177 29M156 30L157 31L156 30z"/>
<path style="fill:#a96bf6; stroke:none;" d="M157 30L158 31L157 30M178 30L179 31L178 30z"/>
<path style="fill:#e2d3e2; stroke:none;" d="M155 31L156 32L155 31z"/>
<path style="fill:#a96bf6; stroke:none;" d="M179 31L180 32L179 31M154 32L155 33L154 32M180 32L181 33L180 32z"/>
<path style="fill:#e2d3e2; stroke:none;" d="M153 33L151 36L153 33M181 33L183 35L181 33z"/>
<path style="fill:#8c2fff; stroke:none;" d="M153 34L154 35L153 34M181 34L182 35L181 34z"/>
<path style="fill:#e2d3e2; stroke:none;" d="M204 34L204 35L207 35L204 34z"/>
<path style="fill:#a96bf6; stroke:none;" d="M207.667 34.3333L208.333 34.6667L207.667 34.3333z"/>
<path style="fill:#e2d3e2; stroke:none;" d="M209 34L209 35L214 35L209 34z"/>
<path style="fill:#8c2fff; stroke:none;" d="M152 35L153 36L152 35z"/>
<path style="fill:#a96bf6; stroke:none;" d="M182 35L183 36L182 35z"/>
<path style="fill:#e2d3e2; stroke:none;" d="M201 35L202 36L201 35z"/>
<path style="fill:#a96bf6; stroke:none;" d="M202.667 35.3333L203.333 35.6667L202.667 35.3333z"/>
<path style="fill:#8c2fff; stroke:none;" d="M214 35L215 36L214 35z"/>
<path style="fill:#a96bf6; stroke:none;" d="M215 35L216 36L215 35z"/>
<path style="fill:#e2d3e2; stroke:none;" d="M216 35L217 36L216 35z"/>
<path style="fill:#a96bf6; stroke:none;" d="M151 36L152 37L151 36z"/>
<path style="fill:#e2d3e2; stroke:none;" d="M183 36L184 37L183 36z"/>
<path style="fill:#a96bf6; stroke:none;" d="M199.667 36.3333L200.333 36.6667L199.667 36.3333z"/>
<path style="fill:#8c2fff; stroke:none;" d="M217 36L218 37L217 36z"/>
<path style="fill:#a96bf6; stroke:none;" d="M218 36L219 37L218 36z"/>
<path style="fill:#e2d3e2; stroke:none;" d="M219 36L220 37L219 36M150 37L151 38L150 37z"/>
<path style="fill:#8c2fff; stroke:none;" d="M150 102C158.74 88.1803 166.689 71.2098 169.414 55C170.191 50.3751 173.535 38.5946 165.965 37.5818C159.854 36.7643 159.182 48.9658 158.116 53C156.14 60.4764 151.887 67.458 150.379 75C148.682 83.4828 150.048 93.3559 150 102z"/>
<path style="fill:#a96bf6; stroke:none;" d="M183 37L184 38L183 37z"/>
<path style="fill:#e2d3e2; stroke:none;" d="M197 37L198 38L197 37z"/>
<path style="fill:#a96bf6; stroke:none;" d="M198 37L199 38L198 37z"/>
<path style="fill:#8c2fff; stroke:none;" d="M220 37L221 38L220 37z"/>
<path style="fill:#e2d3e2; stroke:none;" d="M221 37L222 38L221 37z"/>
<path style="fill:#8c2fff; stroke:none;" d="M150 38L151 39L150 38z"/>
<path style="fill:#a96bf6; stroke:none;" d="M196 38L197 39L196 38M222 38L223 39L222 38z"/>
<path style="fill:#e2d3e2; stroke:none;" d="M149 39L150 40L149 39M184 39L185 40L184 39z"/>
<path style="fill:#a96bf6; stroke:none;" d="M195 39L196 40L195 39z"/>
<path style="fill:#8c2fff; stroke:none;" d="M223 39L224 40L223 39z"/>
<path style="fill:#e2d3e2; stroke:none;" d="M224 39L225 40L224 39z"/>
<path style="fill:#8c2fff; stroke:none;" d="M149 40L150 41L149 40z"/>
<path style="fill:#a96bf6; stroke:none;" d="M184 40L185 41L184 40M194 40L195 41L194 40M225 40L226 41L225 40z"/>
<path style="fill:#e2d3e2; stroke:none;" d="M148 41L149 42L148 41z"/>
<path style="fill:#a96bf6; stroke:none;" d="M193 41L194 42L193 41M226 41L227 42L226 41z"/>
<path style="fill:#e2d3e2; stroke:none;" d="M227 41L228 42L227 41z"/>
<path style="fill:#8c2fff; stroke:none;" d="M148 42L149 43L148 42z"/>
<path style="fill:#e2d3e2; stroke:none;" d="M185 42L186 43L185 42z"/>
<path style="fill:#a96bf6; stroke:none;" d="M192 42L193 43L192 42z"/>
<path style="fill:#8c2fff; stroke:none;" d="M227 42L228 43L227 42z"/>
<path style="fill:#e2d3e2; stroke:none;" d="M147 43L148 44L147 43z"/>
<path style="fill:#a96bf6; stroke:none;" d="M185.333 43.6667L185.667 44.3333L185.333 43.6667M191 43L192 44L191 43M228 43L229 44L228 43z"/>
<path style="fill:#8c2fff; stroke:none;" d="M147 44L148 45L147 44z"/>
<path style="fill:#e2d3e2; stroke:none;" d="M190 44L191 45L190 44z"/>
<path style="fill:#a96bf6; stroke:none;" d="M229 44L230 45L229 44z"/>
<path style="fill:#e2d3e2; stroke:none;" d="M125 45L125 46L133 46L125 45M146 45L147 46L146 45z"/>
<path style="fill:#8c2fff; stroke:none;" d="M185 45L186 46L185 45z"/>
<path style="fill:#e2d3e2; stroke:none;" d="M189 45L188 47L189 45z"/>
<path style="fill:#a96bf6; stroke:none;" d="M230 45L231 46L230 45z"/>
<path style="fill:#e2d3e2; stroke:none;" d="M120.667 46.3333L121.333 46.6667L120.667 46.3333z"/>
<path style="fill:#a96bf6; stroke:none;" d="M122.667 46.3333L123.333 46.6667L122.667 46.3333z"/>
<path style="fill:#8c2fff; stroke:none;" d="M124 46L125 47L124 46M133.667 46.3333L134.333 46.6667L133.667 46.3333z"/>
<path style="fill:#e2d3e2; stroke:none;" d="M135.667 46.3333L136.333 46.6667L135.667 46.3333z"/>
<path style="fill:#8c2fff; stroke:none;" d="M146 46L147 47L146 46M189 46L190 47L189 46z"/>
<path style="fill:#e2d3e2; stroke:none;" d="M231 46L232 47L231 46M118 47L119 48L118 47z"/>
<path style="fill:#a96bf6; stroke:none;" d="M119 47L120 48L119 47z"/>
<path style="fill:#8c2fff; stroke:none;" d="M137 47L138 48L137 47z"/>
<path style="fill:#e2d3e2; stroke:none;" d="M138 47L139 48L138 47M145 47L146 48L145 47z"/>
<path style="fill:#8c2fff; stroke:none;" d="M188 47L189 48L188 47z"/>
<path style="fill:#a96bf6; stroke:none;" d="M231 47L232 48L231 47M116.667 48.3333L117.333 48.6667L116.667 48.3333z"/>
<path style="fill:#8c2fff; stroke:none;" d="M139 48L140 49L139 48z"/>
<path style="fill:#e2d3e2; stroke:none;" d="M140 48L141 49L140 48z"/>
<path style="fill:#8c2fff; stroke:none;" d="M145 48L146 49L145 48z"/>
<path style="fill:#e2d3e2; stroke:none;" d="M186 48L187 49L186 48z"/>
<path style="fill:#a96bf6; stroke:none;" d="M187 48L188 49L187 48z"/>
<path style="fill:#e2d3e2; stroke:none;" d="M232 48L233 49L232 48M114 49L115 50L114 49z"/>
<path style="fill:#a96bf6; stroke:none;" d="M115 49L116 50L115 49z"/>
<path style="fill:#8c2fff; stroke:none;" d="M141 49L142 50L141 49z"/>
<path style="fill:#e2d3e2; stroke:none;" d="M142 49L143 50L142 49M144.333 49.6667L144.667 50.3333L144.333 49.6667z"/>
<path style="fill:#8c2fff; stroke:none;" d="M186 49L187 50L186 49z"/>
<path style="fill:#a96bf6; stroke:none;" d="M232 49L233 50L232 49z"/>
<path style="fill:#e2d3e2; stroke:none;" d="M112 50L111 52L112 50z"/>
<path style="fill:#a96bf6; stroke:none;" d="M113 50L114 51L113 50M143 50L144 51L143 50z"/>
<path style="fill:#8c2fff; stroke:none;" d="M112 51L113 52L112 51z"/>
<path style="fill:#e2d3e2; stroke:none;" d="M233 51L234 52L233 51z"/>
<path style="fill:#a96bf6; stroke:none;" d="M110 52L111 53L110 52M233 52L234 53L233 52M109 53L110 54L109 53z"/>
<path style="fill:#8c2fff; stroke:none;" d="M233 53L233 62L234 62L233 53z"/>
<path style="fill:#a96bf6; stroke:none;" d="M108 54L109 55L108 54M107 55L108 56L107 55z"/>
<path style="fill:#e2d3e2; stroke:none;" d="M106 56L105 58L106 56M244 56L245 57L244 56z"/>
<path style="fill:#a96bf6; stroke:none;" d="M245.667 56.3333L246.333 56.6667L245.667 56.3333z"/>
<path style="fill:#8c2fff; stroke:none;" d="M247 56L247 57L254 57L247 56z"/>
<path style="fill:#e2d3e2; stroke:none;" d="M254 56L254 57L257 57L254 56z"/>
<path style="fill:#8c2fff; stroke:none;" d="M106 57L107 58L106 57z"/>
<path style="fill:#e2d3e2; stroke:none;" d="M241 57L242 58L241 57z"/>
<path style="fill:#a96bf6; stroke:none;" d="M242 57L243 58L242 57z"/>
<path style="fill:#8c2fff; stroke:none;" d="M243 57L244 58L243 57M257 57L258 58L257 57z"/>
<path style="fill:#e2d3e2; stroke:none;" d="M258 57L259 58L258 57z"/>
<path style="fill:#8c2fff; stroke:none;" d="M105 58L106 59L105 58z"/>
<path style="fill:#e2d3e2; stroke:none;" d="M239 58L240 59L239 58z"/>
<path style="fill:#a96bf6; stroke:none;" d="M240 58L241 59L240 58z"/>
<path style="fill:#8c2fff; stroke:none;" d="M259 58L260 59L259 58z"/>
<path style="fill:#a96bf6; stroke:none;" d="M260 58L261 59L260 58z"/>
<path style="fill:#e2d3e2; stroke:none;" d="M261 58L262 59L261 58M104 59L105 60L104 59z"/>
<path style="fill:#a96bf6; stroke:none;" d="M238 59L239 60L238 59z"/>
<path style="fill:#8c2fff; stroke:none;" d="M262 59L263 60L262 59z"/>
<path style="fill:#e2d3e2; stroke:none;" d="M263 59L264 60L263 59z"/>
<path style="fill:#8c2fff; stroke:none;" d="M104 60L105 61L104 60z"/>
<path style="fill:#a96bf6; stroke:none;" d="M237 60L238 61L237 60z"/>
<path style="fill:#8c2fff; stroke:none;" d="M264 60L265 61L264 60z"/>
<path style="fill:#e2d3e2; stroke:none;" d="M265 60L266 61L265 60M103 61L104 62L103 61z"/>
<path style="fill:#a96bf6; stroke:none;" d="M236 61L237 62L236 61M266 61L267 62L266 61z"/>
<path style="fill:#8c2fff; stroke:none;" d="M103 62L104 63L103 62z"/>
<path style="fill:#a96bf6; stroke:none;" d="M233 62L233 64L235 64L233 62M235 62L236 63L235 62z"/>
<path style="fill:#8c2fff; stroke:none;" d="M267 62L268 63L267 62z"/>
<path style="fill:#e2d3e2; stroke:none;" d="M268 62L269 63L268 62M102 63L103 64L102 63M269 63L270 64L269 63z"/>
<path style="fill:#8c2fff; stroke:none;" d="M102.333 64.6667L102.667 65.3333L102.333 64.6667M233 64L234 65L233 64z"/>
<path style="fill:#a96bf6; stroke:none;" d="M270 64L271 65L270 64M271 65L272 66L271 65z"/>
<path style="fill:#e2d3e2; stroke:none;" d="M101.333 66.6667L101.667 67.3333L101.333 66.6667z"/>
<path style="fill:#a96bf6; stroke:none;" d="M272 66L273 67L272 66M273 67L274 68L273 67M101.333 68.6667L101.667 69.3333L101.333 68.6667z"/>
<path style="fill:#e2d3e2; stroke:none;" d="M274 68L275 69L274 68z"/>
<path style="fill:#8c2fff; stroke:none;" d="M101.333 70.6667L101.667 71.3333L101.333 70.6667M241 131C232.103 132.602 225.205 157.996 221.877 166C220.451 169.428 218.835 174.37 222.318 177.142C231.332 184.317 240.988 175.997 244.2 168C251.515 149.786 254 128.527 254 109C248.91 111.646 247.73 116.602 247 122L246 122C246.154 104.786 260.212 87.634 255 70C248.941 73.1698 248.128 80.8132 246.79 87C243.63 101.612 243.165 116.327 241 131z"/>
<path style="fill:#a96bf6; stroke:none;" d="M275 70L276 71L275 70z"/>
<path style="fill:#e2d3e2; stroke:none;" d="M100 72L100 76L101 76L100 72z"/>
<path style="fill:#a96bf6; stroke:none;" d="M276 72L277 73L276 72M277 74L278 75L277 74M100.333 76.6667L100.667 77.3333L100.333 76.6667z"/>
<path style="fill:#e2d3e2; stroke:none;" d="M278 76L278 80L279 80L278 76z"/>
<path style="fill:#8c2fff; stroke:none;" d="M100.333 78.6667L100.667 79.3333L100.333 78.6667z"/>
<path style="fill:#e2d3e2; stroke:none;" d="M99 81L99 84L100 84L99 81z"/>
<path style="fill:#8c2fff; stroke:none;" d="M277.333 81.6667L277.667 82.3333L277.333 81.6667z"/>
<path style="fill:#e2d3e2; stroke:none;" d="M290 82L290 83L298 83L290 82M299 82L301 84L299 82M277 83L278 84L277 83M286 83L287 84L286 83z"/>
<path style="fill:#a96bf6; stroke:none;" d="M287.667 83.3333L288.333 83.6667L287.667 83.3333z"/>
<path style="fill:#8c2fff; stroke:none;" d="M289 83L290 84L289 83M298.667 83.3333L299.333 83.6667L298.667 83.3333M99 84L100 85L99 84M209 84C206.328 90.9364 207.665 100.803 204.802 106.741C203.258 109.944 199.279 111.837 197.352 115.005C191.467 124.679 186.023 136.901 183.669 148C181.044 160.379 192.733 167.571 202.787 158.682C211.898 150.627 215.369 129.488 217.246 118C218.234 111.952 219.213 103.736 211 104C213.471 98.1822 217.064 86.6126 209 84z"/>
<path style="fill:#e2d3e2; stroke:none;" d="M284 84L285 85L284 84z"/>
<path style="fill:#a96bf6; stroke:none;" d="M285 84L286 85L285 84z"/>
<path style="fill:#8c2fff; stroke:none;" d="M302 84L303 85L302 84z"/>
<path style="fill:#e2d3e2; stroke:none;" d="M303.667 84.3333L304.333 84.6667L303.667 84.3333M98 85L98 88L99 88L98 85z"/>
<path style="fill:#8c2fff; stroke:none;" d="M276.333 85.6667L276.667 86.3333L276.333 85.6667z"/>
<path style="fill:#a96bf6; stroke:none;" d="M283 85L284 86L283 85z"/>
<path style="fill:#8c2fff; stroke:none;" d="M305 85L306 86L305 85z"/>
<path style="fill:#e2d3e2; stroke:none;" d="M306 85L307 86L306 85z"/>
<path style="fill:#a96bf6; stroke:none;" d="M282 86L283 87L282 86z"/>
<path style="fill:#8c2fff; stroke:none;" d="M307 86L308 87L307 86z"/>
<path style="fill:#e2d3e2; stroke:none;" d="M308 86L309 87L308 86M276 87L277 88L276 87z"/>
<path style="fill:#a96bf6; stroke:none;" d="M281 87L282 88L281 87z"/>
<path style="fill:#8c2fff; stroke:none;" d="M309 87L310 88L309 87z"/>
<path style="fill:#e2d3e2; stroke:none;" d="M310 87L311 88L310 87z"/>
<path style="fill:#8c2fff; stroke:none;" d="M98 88L99 89L98 88z"/>
<path style="fill:#e2d3e2; stroke:none;" d="M280 88L281 89L280 88z"/>
<path style="fill:#a96bf6; stroke:none;" d="M311 88L312 89L311 88z"/>
<path style="fill:#e2d3e2; stroke:none;" d="M97.3333 89.6667L97.6667 90.3333L97.3333 89.6667z"/>
<path style="fill:#8c2fff; stroke:none;" d="M275 89L276 90L275 89z"/>
<path style="fill:#e2d3e2; stroke:none;" d="M279 89L280 90L279 89z"/>
<path style="fill:#a96bf6; stroke:none;" d="M312 89L313 90L312 89M275 90L276 91L275 90z"/>
<path style="fill:#8c2fff; stroke:none;" d="M279 90L280 91L279 90M313 90L314 91L313 90z"/>
<path style="fill:#e2d3e2; stroke:none;" d="M314 90L315 91L314 90z"/>
<path style="fill:#8c2fff; stroke:none;" d="M97 91L98 92L97 91z"/>
<path style="fill:#e2d3e2; stroke:none;" d="M275 91L276 92L275 91M278 91L279 92L278 91M315 91L316 92L315 91M96.3333 92.6667L96.6667 93.3333L96.3333 92.6667z"/>
<path style="fill:#8c2fff; stroke:none;" d="M278 92L279 93L278 92z"/>
<path style="fill:#e2d3e2; stroke:none;" d="M316 92L317 93L316 92z"/>
<path style="fill:#8c2fff; stroke:none;" d="M181 93C178.796 102.614 172.899 115.177 175 125L176 125C179.719 116.37 186.353 101.936 181 93M274 93L275 94L274 93z"/>
<path style="fill:#a96bf6; stroke:none;" d="M277 93L278 94L277 93z"/>
<path style="fill:#e2d3e2; stroke:none;" d="M317 93L318 94L317 93z"/>
<path style="fill:#8c2fff; stroke:none;" d="M96 94L97 95L96 94z"/>
<path style="fill:#e2d3e2; stroke:none;" d="M274.333 94.6667L274.667 95.3333L274.333 94.6667M276 94L277 95L276 94z"/>
<path style="fill:#8c2fff; stroke:none;" d="M317 94L318 95L317 94z"/>
<path style="fill:#e2d3e2; stroke:none;" d="M95.3333 95.6667L95.6667 96.3333L95.3333 95.6667z"/>
<path style="fill:#8c2fff; stroke:none;" d="M276 95L277 96L276 95z"/>
<path style="fill:#a96bf6; stroke:none;" d="M318 95L319 96L318 95z"/>
<path style="fill:#010101; stroke:none;" d="M274 96L275 97L274 96z"/>
<path style="fill:#a96bf6; stroke:none;" d="M275 96L276 97L275 96M319 96L320 97L319 96z"/>
<path style="fill:#8c2fff; stroke:none;" d="M95 97L96 98L95 97M273 97L273 100L274 100L273 97z"/>
<path style="fill:#e2d3e2; stroke:none;" d="M274 97L275 98L274 97M320 97L321 98L320 97M94.3333 98.6667L94.6667 99.3333L94.3333 98.6667z"/>
<path style="fill:#8c2fff; stroke:none;" d="M127 98C122.001 108.211 119.755 126.022 123 137C112.187 140.307 127.462 146.134 132.941 144.562C137.29 143.314 136.41 139.912 132.985 138.255C131.773 137.669 130.278 137.376 129 137C132.777 126.916 132.04 108.283 129 98L127 98z"/>
<path style="fill:#e2d3e2; stroke:none;" d="M273 98L274 99L273 98z"/>
<path style="fill:#a96bf6; stroke:none;" d="M320 98L321 99L320 98z"/>
<path style="fill:#e2d3e2; stroke:none;" d="M321 99L322 100L321 99z"/>
<path style="fill:#8c2fff; stroke:none;" d="M94.3333 100.667L94.6667 101.333L94.3333 100.667z"/>
<path style="fill:#a96bf6; stroke:none;" d="M321 100L322 101L321 100z"/>
<path style="fill:#e2d3e2; stroke:none;" d="M322 101L323 102L322 101z"/>
<path style="fill:#a96bf6; stroke:none;" d="M322 102L322 105L323 105L322 102z"/>
<path style="fill:#e2d3e2; stroke:none;" d="M93.3333 103.667L93.6667 104.333L93.3333 103.667z"/>
<path style="fill:#8c2fff; stroke:none;" d="M93.3333 105.667L93.6667 106.333L93.3333 105.667M322 105L323 106L322 105z"/>
<path style="fill:#e2d3e2; stroke:none;" d="M92 107L92 114L93 114L92 107z"/>
<path style="fill:#8c2fff; stroke:none;" d="M322 110L322 113L323 113L322 110M286 131L288 130L288 131C282.202 139.349 269.937 150.134 267.622 159.999C265.135 170.599 283.045 167.491 287.1 162.815C292.759 156.289 298.299 145.586 299.674 137C300.741 130.332 297.139 125.78 291 130C293.894 123.764 297.199 118.763 294 112C286.908 115.545 287.295 124.05 286 131z"/>
<path style="fill:#e2d3e2; stroke:none;" d="M322.333 113.667L322.667 114.333L322.333 113.667z"/>
<path style="fill:#a96bf6; stroke:none;" d="M92 114L92 119L93 119L92 114z"/>
<path style="fill:#8c2fff; stroke:none;" d="M321.333 115.667L321.667 116.333L321.333 115.667z"/>
<path style="fill:#e2d3e2; stroke:none;" d="M321 117L322 118L321 117M92 119L92 134L93 134L92 119z"/>
<path style="fill:#8c2fff; stroke:none;" d="M320 119L321 120L320 119z"/>
<path style="fill:#e2d3e2; stroke:none;" d="M320.333 120.667L320.667 121.333L320.333 120.667z"/>
<path style="fill:#8c2fff; stroke:none;" d="M319 122L320 123L319 122z"/>
<path style="fill:#e2d3e2; stroke:none;" d="M319.333 123.667L319.667 124.333L319.333 123.667z"/>
<path style="fill:#8c2fff; stroke:none;" d="M318 125L319 126L318 125z"/>
<path style="fill:#e2d3e2; stroke:none;" d="M318 126L319 127L318 126z"/>
<path style="fill:#a96bf6; stroke:none;" d="M317 128L318 129L317 128z"/>
<path style="fill:#e2d3e2; stroke:none;" d="M316 130L317 131L316 130z"/>
<path style="fill:#a96bf6; stroke:none;" d="M315 131L316 132L315 131z"/>
<path style="fill:#8c2fff; stroke:none;" d="M314 132L315 133L314 132z"/>
<path style="fill:#e2d3e2; stroke:none;" d="M314 133L314 136L315 136L314 133z"/>
<path style="fill:#8c2fff; stroke:none;" d="M93 134L92 141L93 141L93 134z"/>
<path style="fill:#6718ff; stroke:none;" d="M283 138L284 139L283 138z"/>
<path style="fill:#8c2fff; stroke:none;" d="M313 138L313 141L314 141L313 138z"/>
<path style="fill:#e2d3e2; stroke:none;" d="M92 139L93 140L92 139M91 140L92 141L91 140z"/>
<path style="fill:#6718ff; stroke:none;" d="M282 140L283 141L282 140z"/>
<path style="fill:#a96bf6; stroke:none;" d="M91 141L92 142L91 141M313 141L313 144L314 144L313 141M90 142L91 143L90 142M89 143L90 144L89 143z"/>
<path style="fill:#e2d3e2; stroke:none;" d="M88 144L89 145L88 144M313 144L313 150L314 150L313 144M87 145L86 147L87 145z"/>
<path style="fill:#8c2fff; stroke:none;" d="M87 146L88 147L87 146z"/>
<path style="fill:#a96bf6; stroke:none;" d="M86 147L87 148L86 147z"/>
<path style="fill:#e2d3e2; stroke:none;" d="M85 148L84 150L85 148z"/>
<path style="fill:#8c2fff; stroke:none;" d="M85 149L86 150L85 149z"/>
<path style="fill:#a96bf6; stroke:none;" d="M84 150L85 151L84 150z"/>
<path style="fill:#e2d3e2; stroke:none;" d="M83 151L84 152L83 151z"/>
<path style="fill:#8c2fff; stroke:none;" d="M110 184C122.586 179.981 131.53 163.046 135 151C130.853 151.327 122.774 150.056 119.329 152.042C110.865 156.923 107.016 175.621 110 184M83 152L84 153L83 152M159 152C157.743 155.716 152.988 163.511 156.607 166.914C160.771 170.83 167.493 171.949 172 176.093C192.626 195.057 201.122 215.407 200.999 243C200.978 247.808 198.893 263.344 208.012 261.188C224.235 257.353 216.162 241.195 214.279 232C212.869 225.117 214.343 217.355 217.019 211C218.841 206.671 222.765 199.918 227.985 199.211C232.518 198.598 234.581 204.471 234.891 208C235.782 218.129 227.318 227.238 232 237C242.999 234.866 259.647 230.887 265.16 219.996C268 214.387 267.761 207.136 268.039 201C268.411 192.807 270.652 186.927 261.999 182.403C240.844 171.341 224.802 195.858 205 195.463C198.089 195.325 192.715 188.824 188.59 184.004C179.449 173.322 169.616 163.124 161 152L159 152z"/>
<path style="fill:#e2d3e2; stroke:none;" d="M82 153L83 154L82 153M81 154L82 155L81 154z"/>
<path style="fill:#a96bf6; stroke:none;" d="M81 155L82 156L81 155z"/>
<path style="fill:#8c2fff; stroke:none;" d="M312 155L312 164L313 164L312 155z"/>
<path style="fill:#e2d3e2; stroke:none;" d="M80 156L81 157L80 156z"/>
<path style="fill:#a96bf6; stroke:none;" d="M80 157L81 158L80 157z"/>
<path style="fill:#e2d3e2; stroke:none;" d="M79.3333 158.667L79.6667 159.333L79.3333 158.667z"/>
<path style="fill:#8c2fff; stroke:none;" d="M79 160L80 161L79 160z"/>
<path style="fill:#e2d3e2; stroke:none;" d="M78 161L79 162L78 161z"/>
<path style="fill:#8c2fff; stroke:none;" d="M78 162L79 163L78 162z"/>
<path style="fill:#e2d3e2; stroke:none;" d="M77.3333 163.667L77.6667 164.333L77.3333 163.667z"/>
<path style="fill:#a96bf6; stroke:none;" d="M312 164L312 170L313 170L312 164z"/>
<path style="fill:#8c2fff; stroke:none;" d="M77 165L78 166L77 165z"/>
<path style="fill:#e2d3e2; stroke:none;" d="M76 166L77 167L76 166z"/>
<path style="fill:#8c2fff; stroke:none;" d="M76.3333 167.667L76.6667 168.333L76.3333 167.667z"/>
<path style="fill:#e2d3e2; stroke:none;" d="M75.3333 168.667L75.6667 169.333L75.3333 168.667z"/>
<path style="fill:#8c2fff; stroke:none;" d="M75.3333 170.667L75.6667 171.333L75.3333 170.667z"/>
<path style="fill:#e2d3e2; stroke:none;" d="M312 170L312 176L313 176L312 170M74.3333 171.667L74.6667 172.333L74.3333 171.667z"/>
<path style="fill:#8c2fff; stroke:none;" d="M74.3333 173.667L74.6667 174.333L74.3333 173.667z"/>
<path style="fill:#e2d3e2; stroke:none;" d="M73 174L73 177L74 177L73 174z"/>
<path style="fill:#8c2fff; stroke:none;" d="M104 256C117.762 268.127 119.762 288.461 139 295.931C149.358 299.953 160.135 300.135 171 301.17C199.633 303.896 227.983 301.846 254 288.752C270.153 280.623 289.016 261.365 280.062 241.005C273.371 225.79 255.059 245.995 248 251.151C237.623 258.73 219.958 277.005 206 275.679C196.439 274.771 187.124 266.25 177 264.424C167.391 262.691 154.324 266.472 147.969 256.981C136.608 240.014 131.904 213.063 132.001 193C132.017 189.55 135.721 172.5 127.995 175.466C120.722 178.259 115.93 189.429 110.565 194.782C106.672 198.667 101.093 197.903 97.3904 202.109C87.5272 213.312 85.1621 240.103 89.1705 254C91.9313 263.572 99.1959 265.061 104 256M73 177L74 178L73 177z"/>
<path style="fill:#e2d3e2; stroke:none;" d="M72.3333 178.667L72.6667 179.333L72.3333 178.667z"/>
<path style="fill:#a96bf6; stroke:none;" d="M72 180L73 181L72 180z"/>
<path style="fill:#8c2fff; stroke:none;" d="M311 180L311 184L312 184L311 180M72 181L73 182L72 181z"/>
<path style="fill:#e2d3e2; stroke:none;" d="M71.3333 182.667L71.6667 183.333L71.3333 182.667z"/>
<path style="fill:#8c2fff; stroke:none;" d="M71.3333 184.667L71.6667 185.333L71.3333 184.667z"/>
<path style="fill:#a96bf6; stroke:none;" d="M311 184L311 187L312 187L311 184z"/>
<path style="fill:#e2d3e2; stroke:none;" d="M70.3333 186.667L70.6667 187.333L70.3333 186.667M311 187L311 192L312 192L311 187z"/>
<path style="fill:#a96bf6; stroke:none;" d="M70 188L71 189L70 188z"/>
<path style="fill:#8c2fff; stroke:none;" d="M70.3333 189.667L70.6667 190.333L70.3333 189.667z"/>
<path style="fill:#e2d3e2; stroke:none;" d="M69 191L69 194L70 194L69 191z"/>
<path style="fill:#8c2fff; stroke:none;" d="M69.3333 194.667L69.6667 195.333L69.3333 194.667M310 194L310 198L311 198L310 194z"/>
<path style="fill:#e2d3e2; stroke:none;" d="M68 196L68 199L69 199L68 196z"/>
<path style="fill:#a96bf6; stroke:none;" d="M310.333 198.667L310.667 199.333L310.333 198.667M68 199L69 200L68 199z"/>
<path style="fill:#e2d3e2; stroke:none;" d="M67 200L67 208L68 208L67 200z"/>
<path style="fill:#8c2fff; stroke:none;" d="M68 200L68 203L69 203L68 200z"/>
<path style="fill:#e2d3e2; stroke:none;" d="M310 200L310 204L311 204L310 200z"/>
<path style="fill:#8c2fff; stroke:none;" d="M309 206L309 209L310 209L309 206z"/>
<path style="fill:#a96bf6; stroke:none;" d="M67.3333 208.667L67.6667 209.333L67.3333 208.667M309.333 209.667L309.667 210.333L309.333 209.667z"/>
<path style="fill:#e2d3e2; stroke:none;" d="M66 210L66 227L67 227L66 210z"/>
<path style="fill:#8c2fff; stroke:none;" d="M67 210L67 218L68 218L67 210z"/>
<path style="fill:#e2d3e2; stroke:none;" d="M309.333 211.667L309.667 212.333L309.333 211.667z"/>
<path style="fill:#8c2fff; stroke:none;" d="M308 215L308 218L309 218L308 215z"/>
<path style="fill:#a96bf6; stroke:none;" d="M308 218L309 219L308 218z"/>
<path style="fill:#e2d3e2; stroke:none;" d="M308 219L308 223L309 223L308 219z"/>
<path style="fill:#8c2fff; stroke:none;" d="M307 223L307 226L308 226L307 223M67 224L67 227L68 227L67 224z"/>
<path style="fill:#a96bf6; stroke:none;" d="M307 226L308 227L307 226M67 227L67 230L68 230L67 227z"/>
<path style="fill:#e2d3e2; stroke:none;" d="M307.333 227.667L307.667 228.333L307.333 227.667M67 230L67 235L68 235L67 230z"/>
<path style="fill:#8c2fff; stroke:none;" d="M306.333 230.667L306.667 231.333L306.333 230.667z"/>
<path style="fill:#a96bf6; stroke:none;" d="M122.35 232.086C117.125 235.133 118.861 244.681 120.999 249C122.759 252.554 125.491 255.505 127.355 259C132.977 269.545 143.904 297.406 161.663 283.861C164.521 281.681 162.435 278.918 159.941 277.649C155.181 275.229 149.524 275.278 145.04 272.146C136.443 266.141 134.47 253.074 130.666 244C129.515 241.256 126.835 229.471 122.35 232.086M306 232L307 233L306 232z"/>
<path style="fill:#e2d3e2; stroke:none;" d="M306 233L306 236L307 236L306 233z"/>
<path style="fill:#8c2fff; stroke:none;" d="M68 234L69 235L68 234z"/>
<path style="fill:#a96bf6; stroke:none;" d="M68.3333 235.667L68.6667 236.333L68.3333 235.667z"/>
<path style="fill:#8c2fff; stroke:none;" d="M305.333 236.667L305.667 237.333L305.333 236.667z"/>
<path style="fill:#e2d3e2; stroke:none;" d="M68 237L68 240L69 240L68 237z"/>
<path style="fill:#a96bf6; stroke:none;" d="M94 238L93 244L95 244L94 238z"/>
<path style="fill:#e2d3e2; stroke:none;" d="M305.333 238.667L305.667 239.333L305.333 238.667z"/>
<path style="fill:#8c2fff; stroke:none;" d="M69 239L70 240L69 239z"/>
<path style="fill:#a96bf6; stroke:none;" d="M69.3333 240.667L69.6667 241.333L69.3333 240.667z"/>
<path style="fill:#8c2fff; stroke:none;" d="M304 241L305 242L304 241z"/>
<path style="fill:#e2d3e2; stroke:none;" d="M69.3333 242.667L69.6667 243.333L69.3333 242.667z"/>
<path style="fill:#a96bf6; stroke:none;" d="M304 242L305 243L304 242z"/>
<path style="fill:#e2d3e2; stroke:none;" d="M304.333 243.667L304.667 244.333L304.333 243.667z"/>
<path style="fill:#a96bf6; stroke:none;" d="M70 245L71 246L70 245z"/>
<path style="fill:#8c2fff; stroke:none;" d="M303 245L304 246L303 245z"/>
<path style="fill:#e2d3e2; stroke:none;" d="M70.3333 246.667L70.6667 247.333L70.3333 246.667M303.333 246.667L303.667 247.333L303.333 246.667z"/>
<path style="fill:#a96bf6; stroke:none;" d="M71.3333 248.667L71.6667 249.333L71.3333 248.667z"/>
<path style="fill:#8c2fff; stroke:none;" d="M302 249L303 250L302 249z"/>
<path style="fill:#e2d3e2; stroke:none;" d="M71 250L72 251L71 250M302.333 250.667L302.667 251.333L302.333 250.667z"/>
<path style="fill:#a96bf6; stroke:none;" d="M72.3333 251.667L72.6667 252.333L72.3333 251.667z"/>
<path style="fill:#8c2fff; stroke:none;" d="M301 252L302 253L301 252z"/>
<path style="fill:#e2d3e2; stroke:none;" d="M72 253L73 254L72 253M301 253L302 254L301 253z"/>
<path style="fill:#a96bf6; stroke:none;" d="M73.3333 254.667L73.6667 255.333L73.3333 254.667z"/>
<path style="fill:#8c2fff; stroke:none;" d="M300 255L301 256L300 255z"/>
<path style="fill:#e2d3e2; stroke:none;" d="M73 256L74 257L73 256M300.333 256.667L300.667 257.333L300.333 256.667z"/>
<path style="fill:#a96bf6; stroke:none;" d="M74 257L75 258L74 257z"/>
<path style="fill:#e2d3e2; stroke:none;" d="M74 258L75 259L74 258z"/>
<path style="fill:#8c2fff; stroke:none;" d="M299 258L300 259L299 258z"/>
<path style="fill:#a96bf6; stroke:none;" d="M75 259L76 260L75 259z"/>
<path style="fill:#e2d3e2; stroke:none;" d="M299 259L300 260L299 259M75 260L76 261L75 260z"/>
<path style="fill:#a96bf6; stroke:none;" d="M270 260C267.852 261.05 259.134 268.068 263.647 270.824C269.072 274.139 270.71 262.851 270 260z"/>
<path style="fill:#8c2fff; stroke:none;" d="M298 260L299 261L298 260z"/>
<path style="fill:#a96bf6; stroke:none;" d="M76 261L77 262L76 261z"/>
<path style="fill:#e2d3e2; stroke:none;" d="M298 261L299 262L298 261M76 262L77 263L76 262z"/>
<path style="fill:#a96bf6; stroke:none;" d="M77 263L78 264L77 263z"/>
<path style="fill:#8c2fff; stroke:none;" d="M297 263L298 264L297 263z"/>
<path style="fill:#e2d3e2; stroke:none;" d="M77 264L78 265L77 264M297 264L298 265L297 264z"/>
<path style="fill:#a96bf6; stroke:none;" d="M78 265L79 266L78 265z"/>
<path style="fill:#8c2fff; stroke:none;" d="M296 265L297 266L296 265z"/>
<path style="fill:#e2d3e2; stroke:none;" d="M78 266L79 267L78 266M296 266L297 267L296 266z"/>
<path style="fill:#a96bf6; stroke:none;" d="M79 267L80 268L79 267z"/>
<path style="fill:#8c2fff; stroke:none;" d="M295 267L296 268L295 267z"/>
<path style="fill:#e2d3e2; stroke:none;" d="M79 268L80 269L79 268M295 268L296 269L295 268z"/>
<path style="fill:#a96bf6; stroke:none;" d="M80 269L81 270L80 269z"/>
<path style="fill:#8c2fff; stroke:none;" d="M294 269L295 270L294 269z"/>
<path style="fill:#a96bf6; stroke:none;" d="M81 270L82 271L81 270z"/>
<path style="fill:#e2d3e2; stroke:none;" d="M294 270L295 271L294 270M81 271L82 272L81 271z"/>
<path style="fill:#a96bf6; stroke:none;" d="M293 271L294 272L293 271M82 272L83 273L82 272z"/>
<path style="fill:#e2d3e2; stroke:none;" d="M82 273L83 274L82 273M292 273L293 274L292 273z"/>
<path style="fill:#a96bf6; stroke:none;" d="M83 274L84 275L83 274z"/>
<path style="fill:#8c2fff; stroke:none;" d="M291 274L292 275L291 274z"/>
<path style="fill:#a96bf6; stroke:none;" d="M84 275L85 276L84 275z"/>
<path style="fill:#e2d3e2; stroke:none;" d="M291 275L292 276L291 275M84 276L86 278L84 276z"/>
<path style="fill:#8c2fff; stroke:none;" d="M85 276L86 277L85 276z"/>
<path style="fill:#a96bf6; stroke:none;" d="M290 276L291 277L290 276z"/>
<path style="fill:#8c2fff; stroke:none;" d="M289 277L290 278L289 277z"/>
<path style="fill:#a96bf6; stroke:none;" d="M86 278L87 279L86 278z"/>
<path style="fill:#e2d3e2; stroke:none;" d="M289 278L290 279L289 278z"/>
<path style="fill:#a96bf6; stroke:none;" d="M87 279L88 280L87 279M288 279L289 280L288 279z"/>
<path style="fill:#e2d3e2; stroke:none;" d="M87 280L88 281L87 280z"/>
<path style="fill:#a96bf6; stroke:none;" d="M287 280L288 281L287 280M88 281L89 282L88 281z"/>
<path style="fill:#8c2fff; stroke:none;" d="M286 281L285 283L286 281z"/>
<path style="fill:#a96bf6; stroke:none;" d="M89 282L90 283L89 282z"/>
<path style="fill:#e2d3e2; stroke:none;" d="M286 282L287 283L286 282z"/>
<path style="fill:#a96bf6; stroke:none;" d="M90 283L91 284L90 283z"/>
<path style="fill:#e2d3e2; stroke:none;" d="M285 283L286 284L285 283z"/>
<path style="fill:#a96bf6; stroke:none;" d="M91 284L92 285L91 284z"/>
<path style="fill:#e2d3e2; stroke:none;" d="M284 284L285 285L284 284z"/>
<path style="fill:#8c2fff; stroke:none;" d="M92 285L93 286L92 285z"/>
<path style="fill:#a96bf6; stroke:none;" d="M283 285L284 286L283 285z"/>
<path style="fill:#e2d3e2; stroke:none;" d="M92 286L93 287L92 286z"/>
<path style="fill:#a96bf6; stroke:none;" d="M282 286L283 287L282 286z"/>
<path style="fill:#e2d3e2; stroke:none;" d="M93 287L94 288L93 287z"/>
<path style="fill:#a96bf6; stroke:none;" d="M281 287L282 288L281 287z"/>
<path style="fill:#e2d3e2; stroke:none;" d="M94 288L95 289L94 288z"/>
<path style="fill:#a96bf6; stroke:none;" d="M280 288L281 289L280 288z"/>
<path style="fill:#e2d3e2; stroke:none;" d="M95 289L96 290L95 289z"/>
<path style="fill:#a96bf6; stroke:none;" d="M279 289L280 290L279 289z"/>
<path style="fill:#e2d3e2; stroke:none;" d="M96 290L97 291L96 290z"/>
<path style="fill:#8c2fff; stroke:none;" d="M277 290L278 291L277 290z"/>
<path style="fill:#e2d3e2; stroke:none;" d="M278 290L279 291L278 290M97 291L98 292L97 291z"/>
<path style="fill:#a96bf6; stroke:none;" d="M276 291L277 292L276 291z"/>
<path style="fill:#e2d3e2; stroke:none;" d="M98 292L99 293L98 292z"/>
<path style="fill:#a96bf6; stroke:none;" d="M275 292L276 293L275 292z"/>
<path style="fill:#e2d3e2; stroke:none;" d="M99 293L103 297L99 293z"/>
<path style="fill:#8c2fff; stroke:none;" d="M100 293L101 294L100 293z"/>
<path style="fill:#a96bf6; stroke:none;" d="M274 293L275 294L274 293z"/>
<path style="fill:#8c2fff; stroke:none;" d="M101 294L102 295L101 294z"/>
<path style="fill:#a96bf6; stroke:none;" d="M272 294L273 295L272 294z"/>
<path style="fill:#8c2fff; stroke:none;" d="M102 295L103 296L102 295z"/>
<path style="fill:#a96bf6; stroke:none;" d="M271 295L272 296L271 295M103 296L104 297L103 296M269 296L270 297L269 296M104 297L105 298L104 297M268 297L269 298L268 297z"/>
<path style="fill:#e2d3e2; stroke:none;" d="M105 298L106 299L105 298z"/>
<path style="fill:#a96bf6; stroke:none;" d="M266 298L267 299L266 298z"/>
<path style="fill:#e2d3e2; stroke:none;" d="M106 299L108 301L106 299z"/>
<path style="fill:#8c2fff; stroke:none;" d="M107 299L108 300L107 299z"/>
<path style="fill:#a96bf6; stroke:none;" d="M264 299L265 300L264 299z"/>
<path style="fill:#e2d3e2; stroke:none;" d="M265 299L266 300L265 299z"/>
<path style="fill:#a96bf6; stroke:none;" d="M108 300L109 301L108 300M263 300L264 301L263 300z"/>
<path style="fill:#e2d3e2; stroke:none;" d="M109 301L110 302L109 301z"/>
<path style="fill:#a96bf6; stroke:none;" d="M261 301L262 302L261 301z"/>
<path style="fill:#e2d3e2; stroke:none;" d="M110 302L111 303L110 302z"/>
<path style="fill:#8c2fff; stroke:none;" d="M111 302L112 303L111 302z"/>
<path style="fill:#a96bf6; stroke:none;" d="M259 302L260 303L259 302M112 303L113 304L112 303M257 303L258 304L257 303z"/>
<path style="fill:#e2d3e2; stroke:none;" d="M113 304L114 305L113 304z"/>
<path style="fill:#a96bf6; stroke:none;" d="M114 304L115 305L114 304M254.667 304.333L255.333 304.667L254.667 304.333z"/>
<path style="fill:#e2d3e2; stroke:none;" d="M115 305L116 306L115 305z"/>
<path style="fill:#8c2fff; stroke:none;" d="M116 305L117 306L116 305z"/>
<path style="fill:#a96bf6; stroke:none;" d="M252.667 305.333L253.333 305.667L252.667 305.333z"/>
<path style="fill:#e2d3e2; stroke:none;" d="M117 306L118 307L117 306z"/>
<path style="fill:#8c2fff; stroke:none;" d="M118 306L119 307L118 306z"/>
<path style="fill:#a96bf6; stroke:none;" d="M250 306L251 307L250 306z"/>
<path style="fill:#e2d3e2; stroke:none;" d="M119 307L120 308L119 307z"/>
<path style="fill:#8c2fff; stroke:none;" d="M120 307L121 308L120 307z"/>
<path style="fill:#a96bf6; stroke:none;" d="M247.667 307.333L248.333 307.667L247.667 307.333z"/>
<path style="fill:#e2d3e2; stroke:none;" d="M121 308L122 309L121 308z"/>
<path style="fill:#8c2fff; stroke:none;" d="M122 308L123 309L122 308M244 308L245 309L244 308z"/>
<path style="fill:#a96bf6; stroke:none;" d="M245 308L246 309L245 308z"/>
<path style="fill:#e2d3e2; stroke:none;" d="M123 309L124 310L123 309z"/>
<path style="fill:#8c2fff; stroke:none;" d="M124 309L125 310L124 309z"/>
<path style="fill:#a96bf6; stroke:none;" d="M242 309L243 310L242 309z"/>
<path style="fill:#e2d3e2; stroke:none;" d="M243 309L244 310L243 309M125 310L126 311L125 310z"/>
<path style="fill:#8c2fff; stroke:none;" d="M126.667 310.333L127.333 310.667L126.667 310.333z"/>
<path style="fill:#a96bf6; stroke:none;" d="M239 310L240 311L239 310z"/>
<path style="fill:#e2d3e2; stroke:none;" d="M240 310L241 311L240 310M128 311L129 312L128 311z"/>
<path style="fill:#8c2fff; stroke:none;" d="M129 311L130 312L129 311M235 311L236 312L235 311z"/>
<path style="fill:#a96bf6; stroke:none;" d="M236 311L237 312L236 311z"/>
<path style="fill:#e2d3e2; stroke:none;" d="M237 311L238 312L237 311M131 312L132 313L131 312z"/>
<path style="fill:#8c2fff; stroke:none;" d="M132 312L133 313L132 312z"/>
<path style="fill:#a96bf6; stroke:none;" d="M232.667 312.333L233.333 312.667L232.667 312.333z"/>
<path style="fill:#e2d3e2; stroke:none;" d="M133.667 313.333L134.333 313.667L133.667 313.333z"/>
<path style="fill:#a96bf6; stroke:none;" d="M135 313L136 314L135 313z"/>
<path style="fill:#8c2fff; stroke:none;" d="M136 313L137 314L136 313z"/>
<path style="fill:#a96bf6; stroke:none;" d="M228.667 313.333L229.333 313.667L228.667 313.333z"/>
<path style="fill:#e2d3e2; stroke:none;" d="M138 314L139 315L138 314z"/>
<path style="fill:#8c2fff; stroke:none;" d="M139.667 314.333L140.333 314.667L139.667 314.333M223 314L224 315L223 314z"/>
<path style="fill:#a96bf6; stroke:none;" d="M224.667 314.333L225.333 314.667L224.667 314.333z"/>
<path style="fill:#e2d3e2; stroke:none;" d="M142.667 315.333L143.333 315.667L142.667 315.333z"/>
<path style="fill:#8c2fff; stroke:none;" d="M144.667 315.333L145.333 315.667L144.667 315.333M219 315L220 316L219 315z"/>
<path style="fill:#a96bf6; stroke:none;" d="M220 315L221 316L220 315z"/>
<path style="fill:#e2d3e2; stroke:none;" d="M221 315L222 316L221 315M147.667 316.333L148.333 316.667L147.667 316.333z"/>
<path style="fill:#a96bf6; stroke:none;" d="M149 316L150 317L149 316z"/>
<path style="fill:#8c2fff; stroke:none;" d="M150.667 316.333L151.333 316.667L150.667 316.333M213 316L214 317L213 316z"/>
<path style="fill:#a96bf6; stroke:none;" d="M214.667 316.333L215.333 316.667L214.667 316.333z"/>
<path style="fill:#e2d3e2; stroke:none;" d="M216 316L217 317L216 316M154 317L154 318L157 318L154 317z"/>
<path style="fill:#a96bf6; stroke:none;" d="M157 317L158 318L157 317z"/>
<path style="fill:#8c2fff; stroke:none;" d="M158 317L158 318L161 318L158 317M204.667 317.333L205.333 317.667L204.667 317.333z"/>
<path style="fill:#a96bf6; stroke:none;" d="M206 317L206 318L209 318L206 317z"/>
<path style="fill:#e2d3e2; stroke:none;" d="M209.667 317.333L210.333 317.667L209.667 317.333M165 318L165 319L169 319L165 318z"/>
<path style="fill:#a96bf6; stroke:none;" d="M169 318L169 319L173 319L169 318z"/>
<path style="fill:#8c2fff; stroke:none;" d="M173 318L173 319L186 319L173 318z"/>
<path style="fill:#a96bf6; stroke:none;" d="M186 318L186 319L198 319L186 318z"/>
<path style="fill:#e2d3e2; stroke:none;" d="M198 318L198 319L201 319L198 318z"/>
</svg>
