<svg id="svg" version="1.1" xmlns="http://www.w3.org/2000/svg" xmlns:xlink="http://www.w3.org/1999/xlink" width="400" height="693.9929328621907" viewBox="0, 0, 400,693.9929328621907"><g id="svgg"><path id="path0" d="M160.424 26.848 C 142.756 35.653,141.763 43.204,140.611 177.385 C 139.714 281.826,138.737 305.106,134.944 312.443 C 127.485 326.866,126.254 302.096,131.391 240.989 C 132.176 231.661,132.818 211.307,132.818 195.760 C 132.819 179.831,133.875 156.514,135.238 142.343 C 138.857 104.707,135.456 91.474,120.176 83.746 C 99.911 73.496,80.024 92.035,75.070 125.795 C 72.345 144.368,67.984 182.281,65.802 206.360 C 64.640 219.187,63.021 231.908,62.205 234.629 C 61.388 237.350,58.486 257.067,55.754 278.445 C 53.022 299.823,49.520 324.311,47.972 332.862 C 46.424 341.413,44.566 359.154,43.843 372.287 L 42.527 396.163 36.095 409.036 C 29.629 421.974,21.165 449.111,15.272 475.792 C -1.874 553.429,45.401 629.696,119.453 643.864 C 198.806 659.047,291.815 635.250,322.793 591.839 C 344.712 561.123,351.501 527.163,354.789 431.802 C 355.540 410.035,357.150 385.866,358.367 378.092 C 362.285 353.070,362.661 303.007,359.135 275.618 C 357.484 262.792,355.532 243.892,354.799 233.619 C 352.355 199.408,345.611 180.214,333.569 173.200 C 322.631 166.828,301.749 171.010,296.609 180.601 C 294.406 184.712,294.370 189.020,295.845 272.792 C 296.961 336.130,296.347 344.170,290.397 344.170 C 287.952 344.170,287.511 342.780,286.584 332.155 C 284.030 302.901,281.021 258.484,279.786 231.802 C 279.048 215.866,277.791 195.194,276.993 185.866 C 276.195 176.537,274.940 157.456,274.205 143.463 C 271.356 89.211,263.410 71.031,241.917 69.590 C 230.288 68.811,219.778 74.376,214.974 83.859 L 211.515 90.687 211.803 144.637 C 211.961 174.309,212.676 212.898,213.392 230.389 C 214.108 247.880,214.886 269.457,215.121 278.338 L 215.548 294.486 211.661 295.530 L 207.774 296.575 207.665 269.489 C 207.605 254.592,207.426 201.696,207.266 151.943 C 206.954 54.867,207.042 56.134,199.571 41.521 C 191.911 26.539,174.293 19.936,160.424 26.848 " stroke="none" fill="#ffebb8" fill-rule="evenodd"></path></g></svg>